<svg class="img-fluid" id="outputsvg" xmlns="http://www.w3.org/2000/svg" style="transform: matrix(1.11388, 0, 0, 1.11388, 0, 0); transform-origin: 50% 50%; cursor: move; max-height: none; transition: transform 200ms ease-in-out 0s;" width="1600" height="844" viewBox="0 0 16000 8440"><g id="l3hDB9CWHpMPfhDBR20hnqW" fill="rgb(255,255,255)" style="transform: none;"><g><path id="p1FAfgbLSZ" d="M 0 4220 l 0 -4220 8000 0 8000 0 0 4220 0 4220 -8000 0 -8000 0 0 -4220 z  m 15620 3950 l 0 -140 -420 0 -420 0 0 -235 c 0 -192 3 -242 15 -265 14 -27 14 -30 0 -30 -12 0 -15 -17 -15 -100 0 -55 1 -100 3 -100 39 0 183 -26 243 -44 176 -53 393 -168 424 -225 5 -11 27 -29 47 -42 58 -34 83 -60 109 -112 14 -26 31 -51 40 -54 8 -3 33 -37 56 -77 23 -39 47 -78 55 -86 7 -9 19 -45 26 -80 7 -36 19 -74 25 -86 19 -35 52 -223 52 -296 0 -76 -32 -248 -55 -301 -8 -17 -19 -58 -25 -89 -6 -31 -19 -67 -29 -80 -9 -13 -34 -50 -54 -83 -20 -33 -50 -73 -66 -88 -17 -15 -31 -33 -31 -40 0 -23 -70 -97 -111 -117 -21 -11 -43 -29 -49 -41 -14 -25 -148 -113 -198 -130 -20 -6 -59 -23 -87 -36 -53 -25 -127 -51 -210 -74 -99 -26 -392 -11 -430 22 -5 5 -17 9 -27 9 -10 0 -62 20 -116 44 -53 24 -108 47 -122 51 -14 4 -34 15 -45 25 -30 27 -169 130 -175 130 -3 0 -12 11 -20 24 -8 14 -43 54 -78 91 -35 36 -68 80 -74 98 -6 18 -28 57 -48 87 -20 30 -47 82 -59 115 -12 33 -27 69 -33 79 -21 39 -37 292 -27 415 10 133 17 177 29 200 5 9 18 43 31 76 12 33 30 69 41 81 10 11 18 25 18 31 0 6 7 16 14 23 8 6 20 28 27 48 14 44 159 206 243 271 32 25 75 60 95 77 20 18 56 37 81 44 25 7 63 22 85 35 59 34 218 82 318 96 l 87 12 0 364 0 363 -640 0 -640 0 0 -1713 c 0 -943 -3 -1829 -7 -1970 l -6 -257 -484 0 -483 0 0 -1190 0 -1190 -2135 0 -2135 0 0 220 0 220 -489 0 c -488 0 -488 0 -495 -37 -3 -21 -6 -55 -6 -75 0 -34 4 -39 62 -74 33 -21 75 -49 92 -64 17 -14 53 -35 80 -45 27 -10 65 -32 85 -50 20 -17 57 -44 83 -61 48 -29 48 -29 48 -137 0 -60 -4 -127 -10 -150 -44 -184 -102 -474 -114 -569 -9 -62 -20 -138 -26 -168 -21 -103 -80 -375 -96 -442 -16 -67 -16 -67 -61 -32 -24 19 -48 34 -52 34 -4 0 -23 15 -42 33 -19 18 -93 79 -166 135 -73 56 -138 110 -145 120 -7 11 -30 27 -51 37 -21 10 -71 49 -110 87 -40 38 -88 77 -107 85 -19 8 -56 37 -81 63 -25 26 -65 60 -90 76 -24 16 -82 61 -129 99 -47 39 -120 97 -163 129 -43 32 -82 67 -88 78 -6 11 -29 27 -52 37 -23 10 -76 51 -117 91 -41 39 -90 78 -108 85 -18 8 -54 36 -80 62 -26 26 -67 61 -92 78 -25 16 -85 64 -135 105 -49 41 -109 88 -133 103 -24 15 -67 51 -95 78 -29 28 -65 56 -82 63 -16 7 -63 45 -103 84 -40 38 -92 79 -116 90 -24 12 -46 27 -49 35 -3 8 -66 62 -139 118 -73 57 -149 117 -168 134 -19 17 -55 43 -79 59 -24 15 -64 49 -90 74 -25 26 -62 54 -81 63 -19 9 -71 51 -114 93 -43 42 -85 76 -92 76 -8 0 -37 21 -66 48 -29 26 -110 91 -180 145 -71 54 -128 102 -128 107 0 4 -24 22 -54 39 -30 16 -78 54 -107 83 -29 29 -69 60 -89 69 -19 9 -65 46 -102 82 -68 65 -68 65 -68 209 0 145 0 145 38 162 20 9 60 31 87 50 111 75 145 96 157 96 7 0 36 12 65 26 51 26 52 28 57 78 3 28 10 177 16 331 6 154 17 361 25 460 8 99 28 365 45 590 16 226 35 476 41 557 7 80 9 154 6 162 -6 14 -28 16 -174 14 l -168 -3 -3 -327 -2 -328 -165 0 -165 0 0 279 0 280 -757 -2 -758 -2 -3 -87 -3 -88 -209 0 -210 0 0 1125 0 1125 -610 0 -610 0 0 140 0 140 7740 0 7740 0 0 -140 z "></path><path id="pjeSlAhJS" d="M 3632 6703 c 3 -58 3 -58 196 -61 192 -2 192 -2 192 58 0 60 0 60 -195 60 -196 0 -196 0 -193 -57 z "></path><path id="pVv5pePxa" d="M 3630 6345 l 0 -245 179 0 c 178 0 178 0 185 63 3 34 9 144 12 245 l 7 182 -191 0 -192 0 0 -245 z "></path><path id="pgTznIoQz" d="M 9900 4455 c 0 -33 2 -35 35 -35 33 0 35 2 35 35 0 33 -2 35 -35 35 -33 0 -35 -2 -35 -35 z "></path></g></g><g id="l5Uzzcdj6cdJeUuMhzoVWSb" fill="rgb(213,191,232)" style="transform: none;"><g><path id="ptgxo6K2Q" d="M 1300 8015 c 0 -8 7 -15 15 -15 13 0 15 -63 15 -510 0 -510 0 -510 54 -510 30 0 215 -13 412 -30 682 -56 1214 -80 1795 -80 540 0 1197 35 1602 85 65 8 182 19 260 25 204 15 496 67 787 141 63 16 146 34 184 40 67 9 312 86 369 116 16 8 63 23 105 34 89 23 190 61 249 96 23 13 92 46 154 73 61 27 134 67 163 88 28 22 71 50 96 62 56 28 199 142 308 244 75 72 82 81 82 117 0 39 0 39 -3325 39 -2949 0 -3325 -2 -3325 -15 z "></path><path id="pZKp3tNf4" d="M 13030 6535 l 0 -1495 -2250 0 -2250 0 0 -505 0 -505 285 0 285 0 0 200 0 200 1289 0 c 1288 0 1288 0 1295 -46 3 -26 6 -116 6 -200 l 0 -154 420 0 c 367 0 420 2 420 15 0 13 60 15 483 15 l 484 0 6 257 c 4 141 7 1027 7 1970 0 1516 2 1713 15 1713 8 0 15 7 15 15 0 13 -35 15 -255 15 l -255 0 0 -1495 z "></path><path id="pTn6gvXTs" d="M 14790 7555 c 0 -31 3 -35 25 -35 16 0 25 -6 25 -15 0 -9 -9 -15 -25 -15 -22 0 -25 -4 -25 -34 0 -19 5 -38 10 -41 6 -4 10 6 10 24 0 30 0 30 26 6 15 -14 30 -22 35 -19 5 3 9 -2 9 -10 0 -10 9 -16 25 -16 14 0 25 3 25 7 0 12 -62 103 -71 103 -5 0 -18 18 -29 40 -25 49 -40 51 -40 5 z "></path><path id="poa8iFfCK" d="M 3630 6705 c 0 -65 0 -65 35 -65 39 0 50 24 15 33 -14 3 -20 14 -20 31 0 26 0 26 165 26 165 0 165 0 165 -30 0 -20 -5 -30 -15 -30 -8 0 -15 -4 -15 -10 0 -5 16 -10 35 -10 36 0 36 0 33 58 -3 57 -3 57 -200 60 -198 2 -198 2 -198 -63 z "></path><path id="pDYIturs2" d="M 5243 6763 c -173 -3 -173 -3 -173 -57 0 -68 -3 -67 212 -66 217 1 210 -1 206 69 -3 65 27 59 -245 54 z "></path><path id="pZlqKhi3i" d="M 5553 6764 c -8 -4 -13 -27 -13 -64 l 0 -58 619 2 c 341 1 622 4 626 7 3 4 8 29 12 58 6 51 6 51 -563 51 -313 0 -591 2 -619 5 -27 2 -56 2 -62 -1 z "></path><path id="p1BbTW6Wv6" d="M 6852 6758 c -6 -6 -12 -34 -12 -60 0 -48 0 -48 55 -48 56 0 56 0 53 58 -3 57 -3 57 -43 60 -23 2 -46 -3 -53 -10 z "></path><path id="pDWNwmBi8" d="M 3950 6575 c 0 -8 7 -15 15 -15 12 0 15 -16 15 -80 0 -73 2 -80 20 -80 19 0 20 7 20 95 0 95 0 95 -35 95 -24 0 -35 -5 -35 -15 z "></path><path id="p175P4Dqpr" d="M 5070 6345 l 0 -245 210 0 210 0 0 245 0 245 -210 0 -210 0 0 -245 z "></path><path id="pYQGVTDZb" d="M 5540 6345 l 0 -245 70 0 70 0 0 245 0 245 -70 0 -70 0 0 -245 z "></path><path id="pgZFeyIWR" d="M 6260 6345 l 0 -245 264 0 264 0 7 133 c 3 72 5 182 3 242 l -3 110 -267 3 -268 2 0 -245 z "></path><path id="pBuB9bIVZ" d="M 6847 6584 c -4 -4 -7 -115 -7 -246 0 -239 0 -239 58 -236 57 3 57 3 57 243 0 240 0 240 -50 243 -28 2 -54 0 -58 -4 z "></path><path id="ptGKezVId" d="M 3630 6400 c 0 -130 3 -160 14 -160 20 0 22 20 20 165 -3 165 -1 155 -19 155 -13 0 -15 -24 -15 -160 z "></path><path id="p1FLFzEdWj" d="M 3976 6368 c -3 -13 -6 -42 -6 -65 0 -36 3 -43 20 -43 18 0 20 7 20 65 0 49 -3 65 -14 65 -7 0 -16 -10 -20 -22 z "></path><path id="preP9vr6p" d="M 3966 6228 c -3 -13 -6 -40 -6 -60 0 -31 4 -38 20 -38 18 0 20 7 20 60 0 44 -4 60 -14 60 -7 0 -16 -10 -20 -22 z "></path><path id="phjrmsrz5" d="M 3630 6195 c 0 -37 24 -50 32 -17 6 27 -2 52 -18 52 -9 0 -14 -11 -14 -35 z "></path><path id="purvvEoIp" d="M 3710 6046 c 0 -16 25 -24 53 -18 32 8 19 32 -18 32 -24 0 -35 -5 -35 -14 z "></path><path id="px1f33jau" d="M 3910 6046 c 0 -7 9 -16 21 -19 19 -5 21 -10 15 -64 -7 -65 -36 -455 -36 -484 0 -12 7 -19 18 -19 16 0 20 27 40 291 12 160 19 295 16 300 -9 15 -74 11 -74 -5 z "></path><path id="pL1rx7lMG" d="M 5070 4337 c 0 -943 -3 -1762 -7 -1820 -6 -107 -6 -107 -40 -107 -31 0 -33 -2 -33 -33 0 -40 15 -57 52 -57 15 0 28 -4 28 -10 0 -23 54 -85 88 -100 20 -10 64 -45 97 -79 33 -34 78 -72 100 -83 22 -12 71 -52 109 -90 38 -38 81 -75 96 -83 15 -8 43 -29 62 -47 20 -18 62 -54 94 -81 121 -97 214 -179 214 -186 0 -4 17 -15 38 -24 21 -9 67 -45 103 -80 35 -35 80 -72 98 -82 19 -9 65 -49 104 -87 38 -39 84 -76 103 -84 18 -8 38 -23 44 -33 5 -11 51 -51 100 -91 50 -39 127 -101 170 -138 156 -131 187 -152 223 -152 35 0 35 0 41 1433 4 787 6 1970 4 2627 l -3 1195 -347 3 -348 2 0 -1950 0 -1950 -284 0 -283 0 -7 92 c -3 50 -6 927 -6 1950 l 0 1858 -305 0 -305 0 0 -1713 z "></path><path id="piXt6fm9a" d="M 3630 5960 c 0 -43 23 -57 33 -20 7 28 -3 60 -19 60 -10 0 -14 -13 -14 -40 z "></path><path id="pjmPUsJyn" d="M 1780 5925 c 0 -37 25 -51 32 -18 3 15 56 17 731 17 l 727 1 0 -277 0 -278 150 0 c 143 0 150 1 150 20 0 19 -7 20 -130 20 l -130 0 0 269 c 0 269 0 269 -22 275 -13 3 -357 6 -765 6 -743 0 -743 0 -743 -35 z "></path><path id="pjZLBm5mq" d="M 1330 5770 c 0 -19 7 -20 240 -20 233 0 240 1 240 20 0 19 -7 20 -240 20 -233 0 -240 -1 -240 -20 z "></path><path id="p17cTKcMSR" d="M 3906 5418 c -6 -33 -36 -431 -36 -468 0 -13 7 -20 18 -20 17 0 20 16 31 173 26 376 26 347 8 347 -10 0 -18 -12 -21 -32 z "></path><path id="pWZxV1zlp" d="M 3866 4888 c -3 -13 -6 -38 -6 -55 0 -26 4 -33 20 -33 18 0 20 7 20 55 0 40 -4 55 -14 55 -7 0 -16 -10 -20 -22 z "></path><path id="p17sYEqiba" d="M 3856 4768 c -3 -13 -6 -40 -6 -60 0 -31 4 -38 20 -38 18 0 20 7 20 60 0 44 -4 60 -14 60 -7 0 -16 -10 -20 -22 z "></path><path id="pNVqml2Qz" d="M 3846 4638 c -3 -13 -6 -42 -6 -65 0 -36 3 -43 20 -43 18 0 20 7 20 65 0 49 -3 65 -14 65 -7 0 -16 -10 -20 -22 z "></path><path id="pNKz0sFaL" d="M 3836 4468 c -3 -13 -6 -67 -6 -120 0 -91 1 -98 20 -98 19 0 20 7 20 120 0 96 -3 120 -14 120 -7 0 -16 -10 -20 -22 z "></path><path id="pOEIwfSPo" d="M 3826 4208 c -3 -13 -6 -62 -6 -110 0 -81 2 -88 20 -88 19 0 20 7 20 110 0 87 -3 110 -14 110 -7 0 -16 -10 -20 -22 z "></path><path id="pyPpVlda7" d="M 3814 3962 c -5 -31 -13 -42 -40 -57 -44 -23 -43 -35 1 -35 24 0 35 5 35 15 0 8 9 15 20 15 17 0 20 7 20 50 0 38 -4 50 -15 50 -9 0 -17 -14 -21 -38 z "></path><path id="p18zJKQL1t" d="M 3650 3850 c -14 -11 -46 -32 -72 -47 -55 -30 -60 -43 -19 -43 39 0 61 9 61 26 0 8 10 14 25 14 14 0 28 7 31 15 4 8 12 15 20 15 8 0 14 9 14 20 0 26 -27 26 -60 0 z "></path><path id="pNkjXnipp" d="M 3453 3726 c -43 -20 -43 -20 -43 -194 0 -174 0 -174 68 -239 37 -36 83 -73 102 -82 20 -9 60 -40 89 -69 29 -29 77 -67 107 -83 30 -17 54 -35 54 -39 0 -5 57 -53 128 -107 70 -54 151 -119 180 -145 29 -27 58 -48 66 -48 7 0 49 -34 92 -76 43 -42 95 -84 114 -93 19 -9 56 -37 81 -63 26 -25 66 -59 90 -74 24 -16 60 -42 79 -59 19 -17 95 -77 168 -134 73 -56 136 -110 139 -118 3 -8 25 -23 49 -35 24 -11 76 -52 116 -90 40 -39 87 -77 103 -84 17 -7 53 -35 82 -63 28 -27 71 -63 95 -78 24 -15 84 -62 133 -103 50 -41 110 -89 135 -105 25 -17 66 -52 92 -78 26 -26 62 -54 80 -62 18 -7 67 -46 108 -85 41 -40 94 -81 117 -91 23 -10 46 -26 52 -37 6 -11 45 -46 88 -78 43 -32 116 -90 163 -129 47 -38 105 -83 129 -99 25 -16 65 -50 90 -76 25 -26 62 -55 81 -63 19 -8 67 -47 107 -85 39 -38 89 -77 110 -87 21 -10 44 -26 51 -36 7 -10 80 -71 163 -135 82 -64 153 -122 157 -128 4 -7 27 -24 53 -38 25 -15 63 -44 86 -66 40 -39 40 -39 52 10 15 65 14 68 -9 68 -11 0 -20 -6 -20 -14 0 -20 -47 -8 -53 15 -3 10 -18 21 -33 25 -31 8 -54 26 -54 43 0 6 -6 11 -13 11 -7 0 -18 9 -25 20 -7 11 -18 20 -25 20 -7 0 -18 9 -25 20 -7 11 -18 20 -26 20 -8 0 -16 7 -20 15 -3 8 -12 15 -21 15 -8 0 -15 5 -15 10 0 6 -8 10 -19 10 -10 0 -21 9 -24 20 -3 11 -14 20 -25 20 -11 0 -22 9 -25 20 -3 12 -14 20 -26 20 -12 0 -21 6 -21 16 0 21 -22 42 -53 49 -14 4 -28 13 -31 21 -3 8 -11 14 -18 14 -7 0 -19 9 -26 20 -7 11 -21 20 -32 20 -11 0 -20 7 -20 15 0 19 -40 65 -57 65 -7 0 -13 4 -13 9 0 5 -10 11 -23 15 -12 3 -32 14 -44 26 -12 11 -31 20 -42 20 -14 0 -21 8 -23 28 -2 19 -9 28 -25 30 -13 2 -23 10 -23 18 0 9 -18 23 -39 32 -22 9 -42 25 -45 35 -2 9 -11 17 -19 17 -8 0 -17 7 -21 15 -3 8 -14 15 -25 15 -10 0 -21 9 -24 20 -3 13 -14 20 -30 20 -19 0 -26 6 -29 23 -2 15 -13 25 -35 31 -17 6 -34 18 -36 28 -3 10 -14 18 -26 18 -12 0 -21 6 -21 13 0 16 -36 47 -55 47 -8 0 -15 8 -15 18 0 10 -12 23 -27 29 -38 16 -66 35 -76 51 -4 6 -15 12 -22 12 -8 0 -15 7 -15 15 0 8 -9 15 -19 15 -13 0 -21 8 -23 22 -2 17 -11 24 -30 26 -16 2 -28 9 -28 15 0 7 -18 23 -40 37 -22 13 -40 30 -40 37 0 7 -9 13 -20 13 -11 0 -20 7 -20 15 0 9 -7 18 -16 22 -9 3 -26 15 -39 27 -44 39 -83 66 -98 66 -8 0 -17 9 -20 20 -3 11 -14 20 -25 20 -11 0 -22 9 -25 20 -3 11 -12 20 -21 20 -9 0 -16 7 -16 15 0 9 -17 23 -37 33 -21 9 -44 25 -51 35 -7 9 -19 17 -25 17 -7 0 -18 9 -25 20 -7 11 -21 20 -32 20 -12 0 -20 7 -20 16 0 8 -6 21 -13 27 -20 18 -77 47 -93 47 -8 0 -14 6 -14 13 0 18 -37 47 -60 47 -15 0 -20 7 -20 26 0 17 -6 28 -20 31 -11 3 -20 9 -20 14 0 5 -8 9 -18 9 -9 0 -33 18 -52 40 -19 22 -40 40 -46 40 -7 0 -14 7 -18 15 -3 8 -14 15 -25 15 -10 0 -21 9 -24 20 -3 11 -12 20 -21 20 -9 0 -16 5 -16 10 0 6 -8 10 -19 10 -10 0 -21 9 -24 20 -3 11 -14 20 -25 20 -11 0 -22 9 -25 20 -3 12 -14 20 -26 20 -12 0 -21 6 -21 13 0 16 -63 73 -92 83 -13 4 -29 15 -36 25 -7 11 -19 19 -26 19 -8 0 -16 7 -20 15 -3 8 -12 15 -21 15 -8 0 -15 7 -15 15 0 8 -9 15 -20 15 -12 0 -20 7 -20 18 -1 16 -61 52 -88 52 -7 0 -12 7 -12 15 0 8 -9 20 -20 27 -11 7 -20 18 -20 25 0 7 -8 13 -19 13 -10 0 -21 9 -24 20 -3 14 -14 20 -31 20 -16 0 -26 6 -26 15 0 8 -10 17 -23 20 -12 4 -27 16 -32 28 -6 12 -20 23 -31 25 -12 2 -24 12 -27 23 -3 11 -14 19 -25 19 -11 0 -22 9 -25 20 -3 11 -12 20 -20 20 -8 0 -17 7 -21 15 -3 8 -12 15 -20 15 -7 0 -16 7 -20 15 -3 8 -15 15 -26 15 -11 0 -20 7 -20 15 0 9 -8 19 -17 22 -10 4 -26 17 -36 30 -10 13 -25 23 -33 23 -8 0 -14 6 -14 14 0 15 -21 26 -50 26 -10 0 -20 9 -23 20 -3 12 -14 20 -26 20 -12 0 -21 6 -21 13 0 22 -34 47 -63 47 -21 0 -27 5 -27 23 0 21 -45 57 -73 57 -7 0 -19 15 -28 32 -8 17 -24 36 -34 42 -41 23 -44 36 -45 188 0 148 0 148 25 154 19 5 25 13 25 35 0 16 -1 28 -2 27 -2 0 -22 -10 -45 -22 z "></path><path id="pdHOVf6ev" d="M 3532 3573 c 3 -33 7 -38 31 -41 15 -2 27 -9 27 -18 0 -8 9 -14 20 -14 12 0 20 -7 20 -17 0 -30 51 -73 87 -73 31 0 33 2 33 33 0 36 -43 87 -73 87 -10 0 -17 8 -17 20 0 14 -7 20 -24 20 -15 0 -26 7 -29 20 -4 15 -14 20 -42 20 -36 0 -36 0 -33 -37 z "></path><path id="p1DfJK1Yws" d="M3964.9131836744978 3300.1493767222887 C 3964.9131836744978 3335.9858285405917 3935.861999487517 3365.0370127275723 3900.025547669214 3365.0370127275723 3864.189095850911 3365.0370127275723 3835.1379116639305 3335.9858285405917 3835.1379116639305 3300.1493767222887 3835.1379116639305 3264.3129249039857 3864.189095850911 3235.261740717005 3900.025547669214 3235.261740717005 3935.861999487517 3235.261740717005 3964.9131836744978 3264.3129249039857 3964.9131836744978 3300.1493767222887 Z M3840.0 3328.0 "></path><path id="pTxwpoMDg" d="M 4290 3205 c 0 -33 2 -35 35 -35 33 0 35 2 35 35 0 33 -2 35 -35 35 -33 0 -35 -2 -35 -35 z "></path><path id="pZ0aklb3U" d="M4174.916207152776 3130.146556227029 C 4174.916207152776 3165.9831341925856 4145.8649207032418 3195.03442064212 4110.0283427376853 3195.03442064212 4074.191764772129 3195.03442064212 4045.1404783225944 3165.9831341925856 4045.1404783225944 3130.146556227029 4045.1404783225944 3094.3099782614727 4074.191764772129 3065.258691811938 4110.0283427376853 3065.258691811938 4145.8649207032418 3065.258691811938 4174.916207152776 3094.3099782614727 4174.916207152776 3130.146556227029 Z M4050.0 3158.0 "></path><path id="p1F6N6NBbC" d="M4273.1329248852408 3030.0593042705887 C 4273.1329248852408 3053.629710704043 4254.0253351569922 3072.7373004322917 4230.4549287235377 3072.7373004322917 4206.884522290083 3072.7373004322917 4187.7769325618347 3053.629710704043 4187.7769325618347 3030.0593042705887 4187.7769325618347 3006.488897837134 4206.884522290083 2987.3813081088856 4230.4549287235377 2987.3813081088856 4254.0253351569922 2987.3813081088856 4273.1329248852408 3006.488897837134 4273.1329248852408 3030.0593042705887 Z M4192.0 3033.0 "></path><path id="p19VMDvhR8" d="M 4290 2935 c 0 -33 2 -35 35 -35 33 0 35 2 35 35 0 33 -2 35 -35 35 -33 0 -35 -2 -35 -35 z "></path><path id="prpKB2J9r" d="M 4392 2873 c 3 -35 6 -38 36 -41 28 -3 32 -7 32 -31 0 -37 38 -71 78 -71 30 0 32 3 32 33 0 41 -34 77 -73 77 -22 0 -26 5 -29 33 -3 29 -6 32 -41 35 -38 3 -38 3 -35 -35 z "></path><path id="pgV0dxI2T" d="M 4592 2713 c 3 -35 6 -38 36 -41 28 -3 32 -7 32 -32 0 -34 70 -100 106 -100 16 0 24 -7 26 -22 2 -19 10 -24 41 -26 31 -3 37 -7 37 -26 0 -32 40 -66 78 -66 30 0 32 3 32 33 0 43 -35 77 -77 77 -27 0 -32 4 -35 28 -2 21 -9 28 -30 30 -17 2 -28 9 -28 19 0 25 -81 92 -112 93 -23 0 -27 5 -30 33 -3 29 -6 32 -41 35 -38 3 -38 3 -35 -35 z "></path><path id="pMblmtDFF" d="M 8198 2103 c -6 -28 2 -53 18 -53 9 0 14 11 14 35 0 37 -24 50 -32 18 z "></path><path id="peUTvZIIu" d="M 7310 1975 c 0 -22 4 -25 35 -25 43 0 44 10 6 33 -38 22 -41 22 -41 -8 z "></path><path id="pbxmbI6kE" d="M 7440 1884 c 0 -21 5 -24 35 -24 22 0 35 5 35 13 0 8 -16 18 -35 24 -33 11 -35 10 -35 -13 z "></path><path id="p1GevZdV6O" d="M 7530 1845 c 0 -22 4 -25 38 -25 37 1 37 1 9 25 -36 32 -47 31 -47 0 z "></path><path id="pBdOI9z34" d="M 7620 1775 c 0 -21 5 -25 30 -25 28 0 30 -2 30 -40 0 -33 3 -40 20 -40 16 0 20 7 20 38 0 33 -5 40 -44 65 -53 33 -56 33 -56 2 z "></path><path id="pBwMSRZdX" d="M 8200 1700 c 0 -20 7 -20 2165 -20 2158 0 2165 0 2165 20 0 20 -7 20 -2165 20 -2158 0 -2165 0 -2165 -20 z "></path><path id="pahEqXf6b" d="M 7680 1455 c 0 -40 24 -49 34 -12 10 37 7 47 -14 47 -16 0 -20 -7 -20 -35 z "></path><path id="p6WBtJBq4" d="M 7642 1292 c -26 -124 -27 -142 -8 -142 10 0 21 28 35 88 35 153 36 162 15 162 -16 0 -23 -18 -42 -108 z "></path><path id="pgauutO2T" d="M 7581 1008 c -25 -135 -27 -178 -6 -178 9 0 16 14 20 38 3 20 15 83 26 139 23 123 23 113 0 113 -16 0 -22 -16 -40 -112 z "></path><path id="pPlwtkVCt" d="M 7546 773 c -9 -60 -7 -83 8 -83 9 0 18 19 25 50 14 67 14 70 -8 70 -14 0 -20 -10 -25 -37 z "></path><path id="pl4R6G9oI" d="M 7020 707 c 0 -41 35 -77 73 -77 23 0 27 -4 27 -28 0 -37 17 -52 57 -52 31 0 33 2 33 33 0 40 -15 57 -52 57 -24 0 -28 4 -28 28 0 38 -37 72 -78 72 -30 0 -32 -3 -32 -33 z "></path><path id="p17DxaMltK" d="M 7490 498 c -43 -200 -47 -238 -27 -238 11 0 19 17 27 58 7 31 25 115 41 187 16 71 29 133 29 137 0 5 -8 8 -19 8 -15 0 -23 -22 -51 -152 z "></path><path id="pwqdE9jMm" d="M7333.130395933315 490.04607017018276 C 7333.130395933315 513.6164386921815 7314.022836938374 532.72399768712273 7290.452468416375 532.72399768712273 7266.882099894377 532.72399768712273 7247.774540899435 513.6164386921815 7247.774540899435 490.04607017018276 7247.774540899435 466.47570164818404 7266.882099894377 447.3681426532428 7290.452468416375 447.3681426532428 7314.022836938374 447.3681426532428 7333.130395933315 466.47570164818404 7333.130395933315 490.04607017018276 Z M7252.0 493.0 "></path></g></g><g id="lJT7Z6FI3m0Jl38fUpD6XV" fill="rgb(197,175,216)" style="transform: none;"><g><path id="p7nLVRved" d="M 15610 8320 c 0 -13 7 -20 20 -20 13 0 20 7 20 20 0 13 -7 20 -20 20 -13 0 -20 -7 -20 -20 z "></path><path id="puJr294mB" d="M 15610 8115 c 0 -108 1 -115 20 -115 19 0 20 7 20 115 0 108 -1 115 -20 115 -19 0 -20 -7 -20 -115 z "></path><path id="pr1H1C3zu" d="M 7886 8015 c -4 -10 1 -15 14 -15 11 0 20 -4 20 -9 0 -27 -311 -291 -390 -331 -25 -12 -68 -40 -96 -62 -29 -21 -102 -61 -163 -88 -62 -27 -131 -60 -154 -73 -59 -35 -160 -73 -249 -96 -42 -11 -89 -26 -105 -34 -57 -30 -302 -107 -369 -116 -38 -6 -121 -24 -184 -40 -291 -74 -583 -126 -787 -141 -78 -6 -195 -17 -260 -25 -225 -28 -580 -55 -917 -70 -729 -32 -1482 -12 -2420 65 -197 17 -389 30 -427 30 l -69 0 0 -625 0 -625 240 0 240 0 0 85 c 0 69 3 85 15 85 13 0 15 50 15 391 l 0 391 733 -2 c 1089 -3 1087 -3 1087 15 0 13 23 15 167 13 168 -3 168 -3 168 -32 1 -20 -5 -30 -17 -34 -10 -2 -18 -11 -18 -18 0 -11 37 -14 205 -14 205 0 205 0 205 35 0 35 0 35 348 33 347 -3 347 -3 350 -35 3 -32 5 -33 48 -33 52 0 62 24 14 35 -23 5 -30 12 -30 31 0 24 0 24 170 24 94 0 173 1 178 3 4 1 8 -10 10 -25 3 -29 -5 -34 -58 -29 -42 4 -90 -9 -90 -24 0 -12 18 -15 90 -15 90 0 90 0 90 35 0 28 4 35 20 35 15 0 20 -7 20 -29 0 -17 6 -31 16 -35 9 -3 195 -6 415 -6 342 0 399 2 399 15 0 23 -47 26 -427 23 -363 -3 -363 -3 -363 24 0 14 4 28 10 30 5 2 275 2 599 0 588 -2 588 -2 583 -27 -4 -23 -9 -25 -56 -25 -65 0 -96 -9 -96 -26 0 -11 21 -14 95 -14 95 0 95 0 95 35 0 28 4 35 20 35 16 0 20 -7 20 -35 0 -35 0 -35 60 -35 60 0 60 0 60 34 0 34 0 34 478 33 l 477 -2 3 -526 2 -526 128 -7 c 70 -3 219 -7 332 -8 l 205 -3 3 1198 2 1197 -349 0 c -301 0 -350 -2 -355 -15 z  m -968 -1308 c 3 -23 -1 -27 -21 -27 -25 0 -33 24 -14 48 15 19 32 9 35 -21 z "></path><path id="pgtHD3c57" d="M 14780 7575 c 0 -19 5 -35 10 -35 6 0 10 -9 10 -20 0 -11 7 -20 15 -20 8 0 15 -7 15 -15 0 -10 10 -15 31 -15 34 0 34 1 -18 58 -12 13 -25 37 -28 53 -9 42 -35 38 -35 -6 z "></path><path id="pdIEf1A7u" d="M 14913 7375 c 41 -36 58 -34 37 6 -7 12 -21 19 -38 19 -27 -1 -27 -1 1 -25 z "></path><path id="phxhWlJSe" d="M 3960 6575 c 0 -8 7 -15 15 -15 18 0 19 -20 5 -219 -14 -187 -18 -211 -35 -211 -8 0 -15 -7 -15 -15 0 -13 31 -15 220 -15 l 220 0 0 245 0 245 -205 0 c -176 0 -205 -2 -205 -15 z "></path><path id="pNbiTci2S" d="M 5530 6345 c 0 -245 0 -245 35 -245 24 0 35 5 35 15 0 8 -7 15 -15 15 -13 0 -15 31 -15 215 0 184 2 215 15 215 8 0 15 7 15 15 0 10 -11 15 -35 15 -35 0 -35 0 -35 -245 z "></path><path id="pxCgBJ3df" d="M 5620 6575 c 0 -8 7 -15 15 -15 13 0 15 -31 15 -215 0 -184 -2 -215 -15 -215 -8 0 -15 -7 -15 -15 0 -10 11 -15 35 -15 35 0 35 0 35 245 0 245 0 245 -35 245 -24 0 -35 -5 -35 -15 z "></path><path id="p15ojVDDPL" d="M 6730 6576 c 0 -7 8 -16 18 -18 16 -4 17 -19 15 -154 -1 -82 -2 -177 -2 -211 -1 -49 -4 -63 -16 -63 -8 0 -15 -7 -15 -15 0 -10 11 -15 35 -15 35 0 35 0 35 245 0 245 0 245 -35 245 -23 0 -35 -5 -35 -14 z "></path><path id="p1DDBoZATy" d="M 6840 6555 c 0 -39 24 -50 33 -15 3 12 14 20 27 20 13 0 24 -8 27 -20 9 -35 33 -24 33 15 0 35 0 35 -60 35 -60 0 -60 0 -60 -35 z "></path><path id="phWsMbsMs" d="M 6840 6159 c 0 -43 21 -59 74 -59 46 0 46 0 46 35 0 36 -25 51 -32 19 -4 -19 -59 -30 -57 -11 4 30 -2 47 -16 47 -10 0 -15 -10 -15 -31 z "></path><path id="p11l0cP59O" d="M 3640 6125 c 0 -34 1 -35 40 -35 33 0 40 3 40 20 0 16 -7 20 -30 20 -20 0 -30 5 -30 15 0 8 -4 15 -10 15 -5 0 -10 -16 -10 -35 z "></path><path id="pTUHlFOho" d="M 3630 6025 c 0 -39 24 -50 33 -15 3 11 12 20 21 20 9 0 16 7 16 15 0 10 -11 15 -35 15 -33 0 -35 -2 -35 -35 z "></path><path id="p1Ddf9gj1u" d="M 3920 6048 c 0 -9 8 -18 18 -20 17 -5 17 -21 -9 -359 -63 -828 -89 -1210 -99 -1464 -11 -288 -7 -272 -60 -306 -11 -7 -12 -12 -3 -15 8 -4 10 -38 7 -127 -6 -122 -6 -122 36 -170 23 -26 59 -56 79 -66 20 -11 57 -43 82 -73 26 -30 67 -65 92 -78 25 -14 51 -34 58 -47 6 -12 49 -54 95 -92 69 -59 89 -71 118 -71 36 0 36 0 36 1445 l 0 1445 -172 0 c -95 0 -197 3 -225 6 -44 6 -53 4 -53 -8 z "></path><path id="pflKmPDAp" d="M 5070 6025 c 0 -24 5 -35 15 -35 8 0 15 7 15 15 0 13 37 15 275 15 l 275 0 0 -1882 c 0 -1036 3 -1893 6 -1906 4 -12 13 -22 20 -22 12 0 14 289 12 1923 l -3 1922 -307 3 c -308 2 -308 2 -308 -33 z "></path><path id="pYMWEz7Iq" d="M 6260 6025 c 0 -24 5 -35 15 -35 8 0 15 7 15 15 0 13 42 15 316 15 307 0 316 -1 321 -20 3 -11 12 -20 20 -20 10 0 13 10 11 38 -3 37 -3 37 -350 40 -348 2 -348 2 -348 -33 z "></path><path id="pol3qSt6f" d="M 3240 5946 c 0 -7 9 -16 20 -19 19 -5 20 -15 22 -276 l 3 -271 153 -2 c 154 -3 154 -3 148 26 -3 16 -6 147 -6 292 l 0 264 -170 0 c -138 0 -170 -3 -170 -14 z "></path><path id="pMAbz7az7" d="M 8520 4535 c 0 -505 0 -505 35 -505 24 0 35 5 35 15 0 8 -7 15 -15 15 -13 0 -15 59 -15 475 0 416 2 475 15 475 8 0 15 7 15 15 0 10 -11 15 -35 15 -35 0 -35 0 -35 -505 z "></path><path id="poig4cUEs" d="M 6980 4540 l 0 -200 163 -1 c 1038 -6 990 -8 983 46 -3 28 -6 119 -6 203 l 0 152 -570 0 -570 0 0 -200 z "></path><path id="p6LSt3rt0" d="M 9070 4260 c 0 -171 -2 -200 -15 -200 -8 0 -15 -7 -15 -15 0 -10 11 -15 35 -15 35 0 35 0 35 215 0 208 -1 215 -20 215 -19 0 -20 -7 -20 -200 z "></path><path id="pfBgSWZhm" d="M 9410 4440 c 0 -17 7 -20 50 -20 43 0 50 3 50 20 0 17 -7 20 -50 20 -43 0 -50 -3 -50 -20 z "></path><path id="pQCntGEsH" d="M 10080 4440 c 0 -18 7 -20 60 -20 53 0 60 2 60 20 0 18 -7 20 -60 20 -53 0 -60 -2 -60 -20 z "></path><path id="pP2WFm7se" d="M 10730 4440 c 0 -16 7 -20 35 -20 28 0 35 4 35 20 0 16 -7 20 -35 20 -28 0 -35 -4 -35 -20 z "></path><path id="pfikELdOt" d="M 11380 4440 c 0 -18 7 -20 65 -20 58 0 65 2 65 20 0 18 -7 20 -65 20 -58 0 -65 -2 -65 -20 z "></path><path id="pDlLRqP52" d="M 11680 4230 c 0 -200 0 -200 35 -200 24 0 35 5 35 15 0 8 -7 15 -15 15 -13 0 -15 25 -15 163 0 174 -4 207 -26 207 -11 0 -14 -36 -14 -200 z "></path><path id="pBxVKeeUn" d="M 12160 4040 c 0 -19 7 -20 165 -20 l 165 0 0 -1165 c 0 -1158 0 -1165 20 -1165 20 0 20 7 20 1185 l 0 1185 -185 0 c -178 0 -185 -1 -185 -20 z "></path><path id="pWkLRcjfA" d="M 3701 3871 c -64 -23 -68 -45 -7 -39 54 6 59 9 54 36 -3 19 -4 19 -47 3 z "></path><path id="p219Iok9E" d="M 3567 3796 c -31 -18 -67 -42 -80 -53 -12 -12 -32 -24 -44 -28 -23 -6 -23 -9 -23 -182 0 -176 0 -176 64 -238 34 -35 78 -71 97 -80 19 -10 67 -49 108 -87 41 -37 81 -68 88 -68 7 0 37 -21 66 -47 29 -27 110 -92 180 -147 70 -54 127 -102 127 -106 0 -5 24 -21 53 -38 28 -16 77 -55 107 -86 30 -31 74 -66 97 -77 24 -11 51 -31 62 -45 23 -30 108 -97 149 -118 17 -9 35 -22 39 -29 9 -14 112 -98 235 -191 42 -32 79 -63 81 -70 3 -7 29 -27 59 -44 29 -17 77 -55 107 -86 29 -30 74 -65 98 -77 25 -12 47 -27 49 -34 7 -16 121 -108 161 -129 17 -8 33 -20 35 -25 3 -9 125 -107 224 -180 25 -19 60 -50 78 -68 17 -19 54 -47 82 -63 28 -15 63 -43 79 -62 32 -38 123 -108 141 -108 7 0 23 -12 36 -28 23 -27 61 -59 227 -187 50 -38 91 -73 91 -77 0 -4 17 -16 39 -27 21 -11 67 -47 102 -81 35 -34 83 -71 107 -82 23 -11 55 -36 70 -54 31 -37 139 -124 154 -124 6 0 27 -17 47 -37 20 -21 89 -78 153 -126 65 -48 130 -102 145 -118 15 -17 42 -36 58 -43 17 -7 53 -35 82 -62 52 -49 52 -49 61 -4 5 25 26 121 46 215 20 93 34 175 32 181 -3 7 0 14 5 16 9 3 27 95 64 338 9 58 19 117 22 132 4 23 2 28 -15 28 -16 0 -21 -9 -26 -45 -6 -36 -11 -45 -27 -45 -15 0 -19 -7 -19 -34 0 -19 6 -37 13 -39 6 -3 2 -6 -10 -6 -20 -1 -23 -6 -23 -46 0 -33 4 -45 15 -45 8 0 15 -4 15 -10 0 -5 -11 -10 -25 -10 -22 0 -25 -4 -25 -35 0 -28 4 -35 20 -35 11 0 20 -4 20 -10 0 -5 -13 -10 -30 -10 -29 0 -30 -2 -30 -44 0 -38 3 -45 23 -49 16 -3 13 -5 -10 -6 -31 -1 -33 -3 -33 -40 0 -33 4 -40 23 -44 16 -3 14 -5 -10 -6 -31 -1 -32 -3 -35 -47 -3 -46 -3 -46 -65 3 -34 26 -67 58 -73 70 -7 11 -31 29 -54 39 -22 10 -76 53 -119 95 -43 42 -90 82 -105 88 -15 6 -36 25 -47 41 -24 36 -55 47 -55 19 0 -10 -3 -19 -6 -19 -7 0 -95 69 -194 152 -43 37 -120 99 -170 138 -49 40 -95 80 -100 91 -6 10 -26 25 -44 33 -19 8 -65 45 -103 84 -39 38 -85 78 -104 87 -18 10 -63 47 -98 82 -36 35 -82 71 -103 80 -21 9 -38 20 -38 24 0 7 -93 89 -214 186 -32 27 -74 63 -94 81 -19 18 -47 39 -62 47 -15 8 -58 45 -96 83 -38 38 -87 78 -109 90 -22 11 -67 49 -100 83 -33 34 -77 69 -97 79 -44 19 -82 71 -92 123 -5 28 -12 37 -26 37 -11 0 -20 5 -20 10 0 6 -6 10 -14 10 -8 0 -23 11 -34 25 -11 14 -24 25 -28 25 -5 0 -28 21 -52 45 -24 25 -49 45 -55 45 -7 0 -18 9 -25 20 -7 11 -19 20 -27 20 -8 0 -19 9 -25 20 -6 11 -16 20 -22 20 -7 0 -37 26 -68 59 -32 32 -66 62 -77 65 -11 4 -28 15 -38 26 -10 11 -24 20 -31 20 -7 0 -26 19 -43 43 -19 28 -53 57 -95 82 -36 21 -66 42 -66 46 0 14 -74 81 -112 100 -20 10 -45 30 -56 44 -11 14 -25 25 -30 25 -6 0 -20 12 -32 28 -12 15 -36 36 -54 47 -18 11 -47 35 -65 53 -18 17 -38 32 -46 32 -7 0 -30 20 -51 45 -34 39 -104 95 -165 131 -10 5 -38 31 -63 57 -24 26 -51 47 -58 47 -7 0 -21 8 -29 18 -9 11 -25 25 -35 33 -10 8 -32 31 -47 52 -28 37 -28 37 2 37 42 0 61 9 61 31 0 15 7 19 35 19 31 0 35 3 35 25 0 31 -2 31 -73 -9 z  m 129 -328 c 29 -33 29 -33 -3 -4 -18 17 -33 31 -33 33 0 8 8 1 36 -29 z  m 210 -170 c 29 -33 29 -33 -3 -4 -31 28 -38 36 -30 36 2 0 16 -15 33 -32 z  m 210 -170 c 29 -33 29 -33 -3 -4 -31 28 -38 36 -30 36 2 0 16 -15 33 -32 z  m 610 -510 c 29 -33 29 -33 -3 -4 -31 28 -38 36 -30 36 2 0 16 -15 33 -32 z "></path><path id="pY0hqAChI" d="M 5060 2530 c 0 -45 23 -57 34 -17 11 41 7 57 -14 57 -17 0 -20 -7 -20 -40 z "></path><path id="p9kAzLNbL" d="M 6250 2220 c 0 -60 0 -60 -295 -60 -288 0 -295 0 -295 -20 0 -20 7 -20 315 -20 l 315 0 0 80 c 0 73 -2 80 -20 80 -18 0 -20 -7 -20 -60 z "></path><path id="pdmZwyGag" d="M 6926 2258 c -10 -38 -7 -48 14 -48 16 0 20 7 20 35 0 40 -24 49 -34 13 z "></path><path id="p1HHXZJCQW" d="M 7260 2135 c 0 -14 -4 -25 -10 -25 -5 0 -10 -16 -10 -35 0 -19 5 -35 10 -35 6 0 10 -13 10 -30 0 -20 5 -30 15 -30 8 0 15 -4 15 -10 0 -5 11 -10 25 -10 16 0 25 -6 25 -15 0 -8 7 -15 15 -15 8 0 15 -4 15 -10 0 -5 16 -10 36 -10 48 0 36 14 -63 76 -71 44 -75 48 -69 77 3 16 6 36 6 43 0 11 18 14 75 14 68 0 75 2 75 20 0 18 -7 20 -85 20 -84 0 -85 0 -85 -25 z "></path><path id="pGSUBv4vS" d="M 7850 2140 c 0 -19 7 -20 100 -20 93 0 100 1 100 20 0 19 -7 20 -100 20 -93 0 -100 -1 -100 -20 z "></path><path id="p0DGX0bMM" d="M 7470 1870 c 0 -13 7 -20 20 -20 11 0 20 -4 20 -10 0 -5 5 -10 11 -10 6 0 20 -11 31 -25 14 -18 29 -25 54 -25 19 0 34 3 34 6 0 8 -58 56 -99 81 -45 29 -71 30 -71 3 z "></path><path id="pWEP1OCB9" d="M 7650 1755 c 0 -16 6 -25 15 -25 10 0 15 -11 15 -35 0 -19 -4 -35 -8 -35 -11 0 -32 -91 -32 -135 0 -27 5 -34 23 -38 16 -3 13 -5 -10 -6 -31 -1 -33 -3 -33 -40 0 -33 4 -40 23 -44 16 -3 13 -5 -10 -6 -32 -1 -33 -3 -33 -41 0 -33 3 -40 20 -40 11 0 20 -7 20 -15 0 -10 -10 -15 -30 -15 -28 0 -30 -3 -30 -35 0 -28 4 -35 20 -35 19 0 20 -4 14 -55 -6 -46 -4 -55 9 -55 17 0 27 36 30 101 1 19 5 36 9 39 21 16 50 204 54 347 4 152 4 152 -22 172 -35 27 -44 26 -44 -4 z "></path></g></g><g id="l5NA1maVUiHTVwaZTezm4es" fill="rgb(255,222,85)" style="transform: none;"><g><path id="pfM4QRozp" d="M 15610 6885 c 0 -32 2 -35 30 -35 29 0 29 0 9 35 -12 19 -25 35 -30 35 -5 0 -9 -16 -9 -35 z "></path><path id="phrioBQhX" d="M 13860 6865 c -34 -35 -34 -35 3 -35 36 0 37 1 37 35 0 19 -1 35 -3 35 -2 0 -18 -16 -37 -35 z "></path><path id="p4BOH26uM" d="M 4400 6720 c 0 -18 7 -20 60 -20 53 0 60 2 60 20 0 18 -7 20 -60 20 -53 0 -60 -2 -60 -20 z "></path><path id="p7ESY4eAn" d="M 4550 6720 c 0 -19 7 -20 105 -20 98 0 105 1 105 20 0 19 -7 20 -105 20 -98 0 -105 -1 -105 -20 z "></path><path id="pCf9hwTrV" d="M 13758 6693 c -29 -34 -30 -53 -3 -53 22 0 25 4 25 35 0 40 -1 41 -22 18 z "></path><path id="pTNXczEbR" d="M 5880 6315 l 0 -215 180 0 180 0 0 215 0 215 -180 0 -180 0 0 -215 z "></path><path id="p1kX1Gtes" d="M 13676 6498 c -10 -38 -7 -48 14 -48 16 0 20 7 20 35 0 40 -24 49 -34 13 z "></path><path id="pEB5jsXfy" d="M 13666 6398 c -10 -38 -7 -48 14 -48 16 0 20 7 20 35 0 40 -24 49 -34 13 z "></path><path id="pkpmq3WP9" d="M 13656 6268 c -10 -38 -7 -48 14 -48 16 0 20 7 20 35 0 40 -24 49 -34 13 z "></path><path id="pUmNUWiFM" d="M 13650 6163 c 0 -34 12 -63 26 -63 10 0 14 13 14 40 0 33 -3 40 -20 40 -12 0 -20 -7 -20 -17 z "></path><path id="p1B4buLzGb" d="M 5880 5760 l 0 -290 180 0 180 0 0 290 0 290 -180 0 -180 0 0 -290 z "></path><path id="pFE5CQ6hr" d="M 13670 5938 c 0 -30 13 -58 26 -58 9 0 14 12 14 35 0 28 -4 35 -20 35 -11 0 -20 -6 -20 -12 z "></path><path id="p4ypD25go" d="M 13738 5742 c 12 -30 66 -112 75 -112 4 0 7 16 7 35 0 28 -4 35 -20 35 -16 0 -20 7 -20 30 0 25 -4 30 -25 30 -19 0 -23 -4 -17 -18 z "></path><path id="pTca4tRg9" d="M 15680 5595 c 0 -43 10 -44 33 -6 22 38 22 41 -8 41 -22 0 -25 -4 -25 -35 z "></path><path id="p1AUOlEgFN" d="M 13888 5499 c 37 -41 37 -41 40 -14 5 42 -4 55 -42 55 -35 0 -35 0 2 -41 z "></path><path id="pvvUX7wEV" d="M 5880 5145 l 0 -295 180 0 180 0 0 295 0 295 -180 0 -180 0 0 -295 z "></path><path id="pWxuey4A2" d="M 13981 5392 c 6 -10 23 -25 38 -35 14 -9 54 -37 89 -62 62 -47 62 -47 62 -16 0 21 -5 31 -15 31 -8 0 -15 5 -15 10 0 6 -8 10 -19 10 -10 0 -21 9 -24 20 -4 15 -14 20 -36 20 -24 0 -31 4 -31 20 0 16 -7 20 -30 20 -27 0 -29 -2 -19 -18 z "></path><path id="p8r86zMAp" d="M 14250 5216 c 0 -7 8 -16 18 -19 9 -2 25 -8 35 -12 14 -6 17 -2 17 19 0 23 -4 26 -35 26 -23 0 -35 -5 -35 -14 z "></path><path id="pG9kAYMYu" d="M 14380 5157 c 0 -8 19 -20 43 -27 23 -7 51 -16 62 -20 23 -10 109 -30 124 -30 6 0 11 9 11 19 0 16 -12 21 -72 32 -40 7 -79 19 -86 26 -18 17 -82 17 -82 0 z "></path><path id="pYmtu35GI" d="M 15000 5120 c 0 -22 20 -26 51 -10 30 16 23 30 -16 30 -28 0 -35 -4 -35 -20 z "></path><path id="plYD5jpkA" d="M 14820 5090 c 0 -21 10 -24 48 -14 36 10 27 34 -13 34 -28 0 -35 -4 -35 -20 z "></path><path id="pEReTydma" d="M 5880 4545 l 0 -295 180 0 180 0 0 295 0 295 -180 0 -180 0 0 -295 z "></path><path id="pccNut3LA" d="M 9490 4140 l 0 -320 235 0 235 0 0 319 0 320 -235 1 -235 1 0 -321 z "></path><path id="pHLwZEsIi" d="M 10185 4140 l 0 -320 298 0 297 0 0 319 0 320 -297 1 -298 0 0 -320 z "></path><path id="pQCxBg3B2" d="M 10880 4140 l 0 -320 280 0 280 0 0 314 c 0 314 0 314 -22 320 -13 3 -139 6 -280 6 l -258 0 0 -320 z "></path><path id="pt2nIVdxU" d="M 11473 4453 c -10 -4 -13 -77 -13 -319 l 0 -314 100 0 100 0 0 320 0 320 -87 -1 c -49 0 -94 -3 -100 -6 z "></path><path id="pREFzfrnH" d="M 7407 4363 c -16 -4 -17 -43 -15 -676 l 3 -672 85 3 c 92 4 369 66 382 86 4 6 8 293 8 639 l 0 627 -222 -1 c -123 -1 -231 -3 -241 -6 z "></path><path id="p54VP8AJR" d="M 5887 4233 c -4 -3 -7 -134 -7 -290 l 0 -283 180 0 180 0 0 290 0 290 -173 0 c -96 0 -177 -3 -180 -7 z "></path><path id="p58DctXRw" d="M 9492 3348 l 3 -423 233 -3 232 -2 0 425 0 425 -235 0 -235 0 2 -422 z "></path><path id="pLvUj3hHy" d="M 10184 3718 c 3 -29 6 -221 6 -425 l 0 -373 310 0 310 0 0 425 0 425 -316 0 c -317 0 -317 0 -310 -52 z "></path><path id="pZEarTHo5" d="M 10882 3348 l 3 -423 388 -3 387 -2 0 425 0 425 -390 0 -390 0 2 -422 z "></path><path id="pxoztD78M" d="M 5886 3614 c -3 -9 -6 -141 -6 -295 l 0 -279 180 0 180 0 0 295 0 295 -174 0 c -149 0 -175 -2 -180 -16 z "></path><path id="pzOGtjV85" d="M 5882 2668 l 3 -363 178 -3 177 -2 0 365 0 365 -180 0 -180 0 2 -362 z "></path></g></g><g id="lMpK9rIbphSgVBoM44nrgm" fill="rgb(174,144,194)" style="transform: none;"><g><path id="p15OADIitV" d="M 9700 8320 c 0 -19 7 -20 195 -20 188 0 195 1 195 20 0 19 -7 20 -195 20 -188 0 -195 -1 -195 -20 z "></path><path id="pZVPBXxcK" d="M 15610 8205 c 0 -40 24 -49 34 -12 10 37 7 47 -14 47 -16 0 -20 -7 -20 -35 z "></path><path id="paNvkpwds" d="M 15610 8025 c 0 -14 6 -25 13 -25 20 0 25 9 20 31 -8 28 -33 24 -33 -6 z "></path><path id="p198SrDKdv" d="M 14770 7805 c 0 -218 1 -225 20 -225 19 0 20 7 20 210 0 180 2 210 15 210 8 0 15 7 15 15 0 10 -11 15 -35 15 -35 0 -35 0 -35 -225 z "></path><path id="pwoD8KqP2" d="M 14770 7405 c 0 -105 0 -105 35 -105 24 0 35 5 35 15 0 8 -7 15 -15 15 -12 0 -15 15 -15 71 0 62 2 70 15 59 13 -11 15 -8 15 19 0 29 -2 31 -35 31 -35 0 -35 0 -35 -105 z "></path><path id="p1A2uV0Xqs" d="M 14872 7444 c 2 -29 12 -44 40 -67 21 -17 41 -28 44 -24 8 7 -67 127 -79 127 -5 0 -7 -16 -5 -36 z "></path><path id="p8qbxAdRm" d="M 1810 6720 c 0 -20 7 -20 630 -20 623 0 630 0 630 20 0 20 -7 20 -630 20 -623 0 -630 0 -630 -20 z "></path><path id="p7zf5KRSN" d="M 3120 6718 c 0 -17 17 -18 270 -18 266 0 270 0 270 21 0 20 -4 20 -270 17 -252 -2 -270 -3 -270 -20 z "></path><path id="p1FIQQPsN9" d="M 5460 6720 c 0 -13 7 -20 20 -20 13 0 20 7 20 20 0 13 -7 20 -20 20 -13 0 -20 -7 -20 -20 z "></path><path id="pi6ri9Pek" d="M 7120 6720 c 0 -16 7 -20 35 -20 28 0 35 4 35 20 0 16 -7 20 -35 20 -28 0 -35 -4 -35 -20 z "></path><path id="p15kABfhux" d="M 7310 6720 c 0 -17 7 -20 40 -20 45 0 57 23 18 34 -42 11 -58 7 -58 -14 z "></path><path id="p10kqhmZ3y" d="M 7488 6733 c -10 -3 -18 -11 -18 -19 0 -12 39 -14 241 -14 224 0 240 1 237 18 -3 16 -22 17 -223 18 -121 0 -228 -1 -237 -3 z "></path><path id="pH2lHP6me" d="M 5530 6675 c 0 -33 2 -35 35 -35 39 0 50 24 15 33 -11 3 -20 12 -20 21 0 9 -7 16 -15 16 -10 0 -15 -11 -15 -35 z "></path><path id="pPSlPVHjZ" d="M 6250 6540 c 0 -33 3 -40 20 -40 16 0 20 7 20 30 0 20 5 30 15 30 8 0 15 5 15 10 0 6 -16 10 -35 10 -34 0 -35 -1 -35 -40 z "></path><path id="pOeMl31gv" d="M 5460 6150 c 0 -11 -7 -20 -15 -20 -8 0 -15 -7 -15 -15 0 -10 11 -15 35 -15 33 0 35 2 35 35 0 28 -4 35 -20 35 -13 0 -20 -7 -20 -20 z "></path><path id="pFXSdAeyc" d="M 3660 6109 c 0 -18 10 -19 165 -19 160 0 165 1 165 21 0 20 -5 20 -165 18 -154 -1 -165 -3 -165 -20 z "></path><path id="pc1DoZQew" d="M 3930 6046 c 0 -22 34 -26 228 -26 155 0 182 -2 182 -15 0 -8 7 -15 15 -15 10 0 15 11 15 35 0 35 0 35 -220 35 -181 0 -220 -2 -220 -14 z "></path><path id="pLHxZ7WKe" d="M 5620 6045 c 0 -8 7 -15 16 -15 9 0 18 -9 21 -20 9 -35 33 -24 33 15 0 33 -2 35 -35 35 -24 0 -35 -5 -35 -15 z "></path><path id="pjedCYuVx" d="M 6270 6025 c 0 -19 5 -35 10 -35 6 0 10 8 10 18 0 15 8 17 48 16 62 -2 92 5 92 22 0 11 -18 14 -80 14 -80 0 -80 0 -80 -35 z "></path><path id="pIjd2ZLYz" d="M 6890 6045 c 0 -8 7 -15 16 -15 9 0 18 -9 21 -20 9 -35 33 -24 33 15 0 33 -2 35 -35 35 -24 0 -35 -5 -35 -15 z "></path><path id="poPCQW16O" d="M 1810 5950 c 0 -13 7 -20 20 -20 13 0 20 7 20 20 0 13 -7 20 -20 20 -13 0 -20 -7 -20 -20 z "></path><path id="pbLSmfu0z" d="M 3290 5946 c 0 -16 25 -24 53 -18 32 8 19 32 -18 32 -24 0 -35 -5 -35 -14 z "></path><path id="p13lGURma6" d="M 3410 5946 c 0 -16 25 -24 53 -18 32 8 19 32 -18 32 -24 0 -35 -5 -35 -14 z "></path><path id="p1A3s8Fz9h" d="M 3490 5945 c 0 -14 17 -20 47 -16 10 1 13 -63 15 -276 3 -278 3 -278 56 -281 47 -3 52 -1 52 17 0 17 -6 21 -35 21 -35 0 -35 0 -35 275 0 275 0 275 -50 275 -38 0 -50 -4 -50 -15 z "></path><path id="prudc1hkD" d="M 7920 5675 c 0 -35 0 -35 70 -35 l 70 0 0 -445 0 -445 -375 0 c -368 0 -375 0 -375 -20 0 -20 7 -20 390 -20 l 389 0 3 -176 c 3 -176 3 -176 -44 -170 -44 6 -48 5 -48 -14 0 -16 6 -20 30 -20 30 0 30 0 32 -562 l 3 -563 260 0 260 0 2 300 c 1 165 2 348 3 408 l 0 107 110 0 c 103 0 110 1 110 20 0 19 -7 20 -130 20 l -130 0 0 475 c 0 475 0 475 25 475 18 0 25 5 25 20 0 11 -5 20 -11 20 -7 0 -8 99 -3 325 6 293 6 325 -9 325 -8 0 -17 -7 -19 -16 -3 -14 -27 -16 -193 -15 -276 2 -415 11 -415 27 0 8 -7 14 -15 14 -10 0 -15 -11 -15 -35 z "></path><path id="psI81aKDM" d="M 9075 4449 c -4 -6 -4 -26 -1 -45 8 -40 36 -47 36 -9 0 23 4 25 45 25 38 0 45 3 45 20 0 18 -7 20 -59 20 -33 0 -63 -5 -66 -11 z "></path><path id="pWGyP5L7B" d="M 9468 4453 c -33 -8 -21 -33 16 -33 25 0 35 5 39 20 5 20 -12 25 -55 13 z "></path><path id="p17PbRk321" d="M 9928 4438 c 3 -15 14 -18 58 -18 48 0 54 2 54 21 0 18 -5 20 -59 18 -51 -2 -58 -4 -53 -21 z "></path><path id="poDau6cAH" d="M 10070 4439 c 0 -17 8 -19 60 -19 51 0 60 3 60 18 0 16 -9 18 -60 19 -52 1 -60 -2 -60 -18 z "></path><path id="pru06nAy2" d="M 10747 4439 c 5 -16 15 -19 74 -19 63 0 69 2 69 20 0 19 -6 21 -74 19 -66 -1 -73 -3 -69 -20 z "></path><path id="pWU3rJvmx" d="M 11613 4453 c 9 -2 17 -11 17 -19 0 -10 12 -14 40 -14 33 0 40 3 40 20 0 18 -6 20 -57 19 -32 -1 -50 -3 -40 -6 z "></path><path id="p7hKijUYR" d="M 6980 4365 c 0 -35 0 -35 190 -35 155 0 190 3 190 14 0 21 -33 26 -197 26 -129 0 -153 2 -153 15 0 8 -7 15 -15 15 -10 0 -15 -11 -15 -35 z "></path><path id="pQYsLCZ9M" d="M 9080 4075 c 0 -12 -20 -15 -120 -15 -113 0 -120 -1 -120 -20 0 -19 7 -20 130 -20 130 0 130 0 130 35 0 19 -4 35 -10 35 -5 0 -10 -7 -10 -15 z "></path><path id="pmzhu6mcG" d="M 11690 4055 c 0 -35 0 -35 195 -35 188 0 195 1 195 20 0 19 -7 20 -185 20 -158 0 -185 2 -185 15 0 8 -4 15 -10 15 -5 0 -10 -16 -10 -35 z "></path><path id="p1Guf3FDDQ" d="M 12154 4026 c 3 -16 6 -68 6 -117 0 -88 0 -88 117 -91 103 -3 118 -5 121 -20 3 -16 -8 -18 -117 -18 l -121 0 -2 -607 -3 -608 -1992 -3 -1993 -2 0 -220 c 0 -189 2 -220 15 -220 13 0 15 -31 15 -215 l 0 -215 2160 0 c 2160 0 2160 0 2160 23 2 98 -1 2331 -3 2333 -1 1 -84 4 -185 6 -184 3 -184 3 -178 -26 z "></path><path id="poyW35IIV" d="M 3758 3894 c -55 -28 -61 -44 -18 -44 29 0 30 -1 30 -50 0 -37 4 -50 15 -50 8 0 16 13 19 33 9 59 13 137 7 137 -3 -1 -27 -12 -53 -26 z "></path><path id="p8sxWnJ8o" d="M 3579 3801 c -41 -25 -88 -56 -103 -68 -16 -13 -36 -23 -45 -23 -10 0 -4 -7 14 -18 17 -10 36 -30 43 -43 7 -13 36 -40 64 -59 27 -19 80 -61 116 -93 36 -32 86 -73 111 -90 26 -17 67 -51 94 -76 26 -25 61 -54 77 -64 17 -10 30 -23 30 -28 0 -4 24 -24 53 -42 28 -19 72 -55 97 -81 25 -26 61 -56 80 -66 34 -18 70 -49 120 -105 25 -28 25 -28 28 1 2 15 -1 30 -7 32 -6 2 -11 10 -11 18 0 8 -6 14 -14 14 -7 0 -16 9 -19 20 -4 15 -14 20 -36 20 -24 0 -31 4 -31 20 0 15 -9 22 -30 27 -16 3 -30 12 -30 19 0 25 -34 54 -62 54 -23 0 -28 4 -28 25 0 19 -5 25 -23 25 -14 0 -26 9 -32 23 -7 15 -20 23 -42 25 -27 3 -33 8 -33 26 0 28 -29 56 -58 56 -15 0 -22 6 -22 20 0 11 -6 20 -14 20 -7 0 -16 9 -19 20 -3 14 -14 20 -31 20 -16 0 -26 6 -26 15 0 9 -9 15 -25 15 -17 0 -25 5 -25 18 0 23 -19 42 -42 42 -12 0 -18 7 -18 21 0 12 -8 23 -20 26 -11 3 -20 9 -20 14 0 5 -13 9 -30 9 -23 0 -30 4 -30 20 0 13 -7 20 -18 20 -10 0 -22 12 -29 30 -8 20 -18 30 -32 30 -12 0 -21 6 -21 15 0 10 10 15 30 15 20 0 30 5 30 15 0 9 9 15 25 15 18 0 25 5 25 20 0 16 7 20 35 20 32 0 35 2 35 30 0 17 -1 30 -2 29 -2 -1 -37 -22 -79 -48 z "></path><path id="penYPMCm7" d="M 3760 3684 c 0 -39 6 -53 41 -95 22 -27 45 -49 51 -49 5 0 16 -7 25 -15 8 -9 28 -19 44 -22 20 -4 29 -12 29 -24 0 -11 4 -19 9 -19 5 0 11 -9 14 -20 3 -14 14 -20 31 -20 19 0 26 -5 26 -20 0 -13 13 -26 39 -39 21 -11 41 -27 44 -36 4 -8 18 -15 32 -15 19 0 25 -5 25 -23 0 -29 18 -47 46 -47 16 0 24 -7 26 -22 2 -17 11 -24 31 -26 19 -2 27 -9 27 -23 0 -15 7 -19 35 -19 33 0 35 2 35 35 0 24 -5 35 -15 35 -8 0 -15 -7 -15 -15 0 -8 -3 -15 -6 -15 -12 0 -172 142 -183 163 -7 13 -33 33 -58 47 -25 13 -66 48 -92 78 -25 30 -62 62 -82 73 -55 28 -119 107 -119 147 0 25 -4 32 -20 32 -17 0 -20 -7 -20 -46 z "></path><path id="p1Hk0YX4JW" d="M 4525 2785 c 28 -24 59 -48 70 -51 11 -3 37 -24 59 -46 21 -22 91 -82 156 -133 64 -52 132 -110 151 -129 18 -20 37 -36 42 -36 5 0 27 -14 48 -31 41 -32 49 -26 29 25 -6 16 -17 26 -30 26 -11 0 -20 5 -20 10 0 6 -7 10 -15 10 -8 0 -15 4 -15 10 0 21 -36 50 -62 50 -23 0 -28 4 -28 25 0 18 -5 25 -20 25 -11 0 -20 7 -20 15 0 9 -9 15 -25 15 -18 0 -25 5 -25 20 0 15 -7 20 -24 20 -18 0 -25 6 -28 23 -2 17 -11 23 -35 25 -28 3 -33 7 -33 28 0 14 -7 27 -15 30 -8 4 -15 12 -15 20 0 8 -7 14 -16 14 -8 0 -22 7 -30 15 -9 8 -26 15 -39 15 -17 0 -25 6 -27 23 -2 18 -10 22 -43 25 -40 2 -40 2 10 -43 z "></path><path id="pT2v4nqV1" d="M 5060 2610 c 0 -78 3 -100 14 -100 19 0 26 32 26 123 0 70 -2 77 -20 77 -19 0 -20 -7 -20 -100 z "></path><path id="pPb6BbufT" d="M 5958 2283 l -298 -3 0 -75 0 -75 310 0 c 310 0 310 0 310 49 0 27 3 63 6 80 6 26 4 31 -12 29 -11 -2 -153 -4 -316 -5 z "></path><path id="pDitujxcI" d="M 6926 2248 c -3 -13 -6 -338 -6 -722 0 -700 0 -700 23 -733 12 -18 35 -38 52 -45 16 -7 65 -47 109 -89 43 -43 96 -85 116 -94 21 -9 43 -27 50 -38 13 -24 95 -92 148 -122 32 -19 32 -19 33 -120 1 -113 6 -106 40 55 10 52 26 124 34 160 29 124 53 255 64 348 7 52 19 126 28 165 8 40 21 99 28 132 7 33 27 127 45 209 28 133 32 163 28 268 -3 65 -9 122 -14 127 -5 5 -35 25 -66 45 -58 37 -58 37 -58 6 0 -23 5 -31 25 -36 14 -3 25 -10 25 -15 0 -5 5 -9 11 -9 27 0 53 -54 29 -62 -5 -1 -19 -50 -31 -108 -12 -58 -25 -123 -30 -145 -5 -22 -13 -66 -18 -97 -5 -32 -12 -61 -15 -66 -3 -5 -10 -58 -16 -118 -6 -60 -17 -137 -26 -172 -8 -35 -19 -87 -24 -115 -6 -29 -19 -95 -30 -147 -11 -52 -28 -132 -37 -178 -11 -56 -20 -79 -27 -72 -5 5 -18 10 -28 10 -10 0 -18 7 -18 15 0 9 -9 15 -25 15 -18 0 -25 5 -25 20 0 11 -4 20 -10 20 -5 0 -10 5 -10 11 0 22 -86 79 -121 79 -12 0 -19 7 -19 20 0 11 -7 23 -15 26 -8 4 -15 12 -15 20 0 9 -11 14 -30 14 -25 0 -30 4 -30 25 0 14 -5 25 -11 25 -6 0 -17 7 -25 15 -9 8 -26 15 -38 15 -19 0 -25 7 -30 37 -3 21 -6 354 -6 741 0 591 -2 702 -14 702 -7 0 -16 -10 -20 -22 z "></path><path id="pHSVq92Ls" d="M 7290 2146 c 0 -7 8 -16 18 -18 30 -7 546 -10 575 -3 15 4 27 13 27 21 0 12 -52 14 -310 14 -257 0 -310 -2 -310 -14 z "></path><path id="p0Fp3KPOO" d="M 7920 2145 c 0 -8 6 -15 13 -16 131 -7 127 -8 127 12 0 17 -8 19 -70 19 -56 0 -70 -3 -70 -15 z "></path><path id="pcxdeDcPV" d="M 7320 1965 c 0 -22 4 -25 35 -25 43 0 44 10 6 33 -38 22 -41 22 -41 -8 z "></path><path id="pCe2PlNDo" d="M 7400 1910 c 0 -32 22 -50 64 -50 14 0 26 -4 26 -10 0 -5 16 -10 35 -10 19 0 35 4 35 9 0 9 -47 33 -86 45 -12 4 -29 15 -39 26 -25 28 -35 25 -35 -10 z "></path></g></g><g id="l7emPezKbIWr5YVWwSHTnCc" fill="rgb(241,193,9)" style="transform: none;"><g><path id="p1GdTHhuFx" d="M 4390 6688 c 0 -48 0 -48 367 -46 282 2 367 6 371 16 2 6 -3 12 -12 12 -9 0 -16 11 -18 33 -3 32 -3 32 -355 32 -353 1 -353 1 -353 -47 z "></path><path id="pjFuTb8mF" d="M 4390 6345 l 0 -245 367 2 c 282 2 367 6 371 16 2 6 -3 12 -12 12 -14 0 -16 26 -16 215 0 184 2 215 15 215 8 0 15 7 15 15 0 13 -48 15 -370 15 l -370 0 0 -245 z "></path><path id="p7vPgOmXv" d="M 6020 6520 c 0 -17 7 -20 45 -20 38 0 45 3 45 20 0 17 -7 20 -45 20 -38 0 -45 -3 -45 -20 z "></path><path id="pSJvOyhvW" d="M 5710 6315 l 0 -215 115 0 c 96 0 115 3 115 15 0 8 -7 15 -15 15 -13 0 -15 27 -15 185 0 158 2 185 15 185 8 0 15 7 15 15 0 12 -19 15 -115 15 l -115 0 0 -215 z "></path><path id="pI2R33gPt" d="M 6180 6515 c 0 -8 7 -15 15 -15 11 0 15 -12 15 -50 0 -43 3 -50 20 -50 18 0 20 7 20 65 0 65 0 65 -35 65 -24 0 -35 -5 -35 -15 z "></path><path id="pJNZ4IFRy" d="M 6210 6155 c 0 -16 -6 -25 -15 -25 -8 0 -15 -7 -15 -15 0 -10 11 -15 35 -15 34 0 35 1 35 40 0 33 -3 40 -20 40 -15 0 -20 -7 -20 -25 z "></path><path id="pCaf2V6Df" d="M 4397 6053 c -4 -3 -7 -649 -7 -1434 0 -1429 0 -1429 42 -1472 55 -56 146 -127 163 -127 8 0 20 -9 28 -20 14 -20 50 -50 182 -152 44 -33 98 -78 120 -98 44 -41 125 -90 148 -90 8 0 18 7 21 16 3 9 6 767 6 1685 0 1516 1 1669 16 1669 9 0 14 6 12 13 -4 9 -87 13 -365 15 -197 1 -362 -1 -366 -5 z "></path><path id="pkqeMcR29" d="M 5710 5760 l 0 -290 115 0 c 96 0 115 3 115 15 0 8 -7 15 -15 15 -13 0 -15 36 -15 260 0 224 2 260 15 260 8 0 15 7 15 15 0 12 -19 15 -115 15 l -115 0 0 -290 z "></path><path id="pTVGoZG5V" d="M 6180 6035 c 0 -8 7 -15 15 -15 10 0 15 -10 15 -30 0 -23 4 -30 20 -30 17 0 20 7 20 45 0 45 0 45 -35 45 -24 0 -35 -5 -35 -15 z "></path><path id="p1F1uZJaRj" d="M 6210 5530 c 0 -20 -5 -30 -15 -30 -8 0 -15 -4 -15 -10 0 -5 16 -10 35 -10 34 0 35 1 35 40 0 33 -3 40 -20 40 -16 0 -20 -7 -20 -30 z "></path><path id="paAPjPl1m" d="M 6170 5430 c 0 -13 7 -20 20 -20 17 0 20 -7 20 -45 0 -38 3 -45 20 -45 22 0 24 10 14 84 -6 44 -8 46 -40 46 -27 0 -34 -4 -34 -20 z "></path><path id="pKvijBdNa" d="M 5710 4845 l 0 -595 115 0 c 96 0 115 3 115 15 0 8 -7 15 -15 15 -13 0 -15 36 -15 265 l 0 265 150 0 c 150 0 150 0 150 -45 0 -39 3 -45 20 -45 19 0 21 5 18 63 -3 62 -3 62 -155 65 -127 2 -153 5 -153 17 0 8 -7 15 -15 15 -13 0 -15 36 -15 265 0 229 2 265 15 265 8 0 15 7 15 15 0 12 -19 15 -115 15 l -115 0 0 -595 z "></path><path id="pF4PIbteP" d="M 6210 4925 c 0 -33 -4 -45 -15 -45 -8 0 -15 -4 -15 -10 0 -5 16 -10 35 -10 35 0 35 0 35 55 0 48 -2 55 -20 55 -17 0 -20 -7 -20 -45 z "></path><path id="pSNZVSKFH" d="M 9153 4453 c -23 -4 -23 -4 -23 -296 0 -161 3 -302 6 -314 6 -23 9 -23 170 -23 l 164 0 0 314 c 0 314 0 314 -22 320 -25 6 -260 6 -295 -1 z "></path><path id="pCaFLXyu9" d="M 9928 4154 c 2 -267 1 -304 -13 -304 -8 0 -15 -7 -15 -15 0 -10 11 -15 35 -15 35 0 35 0 35 315 0 173 -3 315 -7 316 -5 0 -15 2 -23 4 -13 2 -15 -36 -12 -301 z "></path><path id="pYZbKSq00" d="M 9998 4453 c -17 -4 -18 -28 -18 -319 l 0 -314 69 0 c 54 0 70 4 75 16 3 9 6 150 6 314 0 298 0 298 -22 304 -26 6 -84 6 -110 -1 z "></path><path id="poMtBLnHA" d="M 10163 4453 c -10 -4 -13 -77 -13 -319 0 -315 0 -315 47 -312 44 3 77 28 36 28 -17 0 -18 15 -16 305 2 305 2 305 -20 304 -12 0 -28 -3 -34 -6 z "></path><path id="pnWQ1dMKv" d="M 10747 4440 c 3 -11 12 -20 19 -20 19 0 18 26 -2 34 -22 9 -23 8 -17 -14 z "></path><path id="pvovNUCQK" d="M 10848 4453 c -17 -4 -18 -28 -18 -319 0 -314 0 -314 55 -314 42 0 55 3 55 15 0 8 -7 15 -15 15 -14 0 -15 37 -13 305 3 305 3 305 -22 304 -14 -1 -33 -3 -42 -6 z "></path><path id="p18LGN3igB" d="M 11403 4453 c 4 -3 7 -11 7 -19 0 -8 7 -14 15 -14 8 0 15 7 15 15 0 8 -4 15 -9 15 -5 0 -15 2 -23 3 -7 2 -10 2 -5 0 z "></path><path id="pYT7djxw8" d="M 11613 4453 c 9 -2 17 -11 17 -19 0 -8 7 -14 15 -14 24 0 18 27 -7 34 -13 3 -27 5 -33 5 -5 -1 -2 -3 8 -6 z "></path><path id="pAmVihgJL" d="M 6210 4325 c 0 -33 -4 -45 -15 -45 -8 0 -15 -4 -15 -10 0 -5 16 -10 35 -10 35 0 35 0 35 55 0 48 -2 55 -20 55 -17 0 -20 -7 -20 -45 z "></path><path id="p1Dlqtxg4v" d="M 7413 4363 c -15 -6 -17 -33 -3 -33 6 0 10 6 10 14 0 9 13 16 33 19 32 4 32 4 2 5 -16 0 -36 -2 -42 -5 z "></path><path id="pB2qerSvZ" d="M 7822 4364 c 16 -5 17 -49 18 -612 0 -334 -3 -612 -8 -618 -9 -14 -276 -80 -351 -87 -46 -4 -54 -2 -58 14 -3 11 -12 19 -20 19 -11 0 -13 -16 -11 -77 l 3 -78 332 -3 332 -2 3 717 c 2 395 2 720 0 723 -2 3 -61 6 -130 7 -70 1 -119 0 -110 -3 z "></path><path id="pvzGGSbv3" d="M 5710 3945 l 0 -295 268 2 c 267 3 267 3 270 46 3 37 1 42 -17 42 -16 0 -21 -6 -21 -25 0 -25 0 -25 -150 -25 l -150 0 0 256 c 0 247 1 256 20 261 11 3 20 12 20 19 0 11 -24 14 -120 14 l -120 0 0 -295 z "></path><path id="pPYy0zxqA" d="M 6193 4213 c 13 -3 17 -15 17 -49 0 -37 3 -44 20 -44 17 0 20 7 20 50 0 50 0 50 -37 49 -21 -1 -30 -3 -20 -6 z "></path><path id="pLOER0Ek7" d="M 10837 3773 c -4 -3 -7 -197 -7 -430 l 0 -423 60 0 c 44 0 60 4 60 14 0 7 -9 16 -20 19 -20 5 -20 14 -20 396 0 341 2 391 15 391 24 0 18 27 -7 34 -31 8 -73 8 -81 -1 z "></path><path id="pM1QwOZDn" d="M 9130 3361 c 0 -225 3 -416 6 -425 5 -14 34 -16 215 -16 171 0 209 2 209 14 0 7 -9 16 -20 19 -19 5 -19 17 -20 396 0 344 1 391 15 391 8 0 15 7 15 15 0 13 -30 15 -210 15 l -210 0 0 -409 z "></path><path id="p3oJZfLDj" d="M 9900 3755 c 0 -8 7 -15 15 -15 13 0 15 -51 15 -395 0 -344 -2 -395 -15 -395 -8 0 -15 -4 -15 -10 0 -5 16 -10 35 -10 35 0 35 0 35 420 0 420 0 420 -35 420 -24 0 -35 -5 -35 -15 z "></path><path id="pLq885awb" d="M 9980 3351 c 0 -373 2 -420 16 -425 9 -3 69 -6 135 -6 99 0 119 3 119 15 0 8 -7 15 -15 15 -13 0 -15 54 -17 395 -3 377 -2 395 15 395 11 0 17 6 15 13 -3 8 -42 13 -136 15 l -132 3 0 -420 z "></path><path id="pD0jE4548" d="M 5710 3335 l 0 -295 115 0 c 96 0 115 3 115 15 0 8 -7 15 -15 15 -13 0 -15 34 -15 249 0 137 3 256 6 265 3 9 12 16 20 16 8 0 14 7 14 15 0 13 -20 15 -120 15 l -120 0 0 -295 z "></path><path id="pC7RijHyb" d="M 6180 3615 c 0 -8 7 -15 15 -15 11 0 15 -11 15 -40 0 -33 3 -40 20 -40 18 0 20 7 20 55 0 55 0 55 -35 55 -24 0 -35 -5 -35 -15 z "></path><path id="pEVNRi7qQ" d="M 6210 3095 c 0 -16 -6 -25 -15 -25 -8 0 -15 -7 -15 -15 0 -10 11 -15 35 -15 34 0 35 1 35 40 0 33 -3 40 -20 40 -15 0 -20 -7 -20 -25 z "></path><path id="p1GKdOQ5a6" d="M 5712 2668 l 3 -363 118 -3 c 95 -2 117 0 117 12 0 7 -9 16 -19 19 -19 5 -20 16 -21 336 0 290 1 331 15 331 8 0 15 7 15 15 0 12 -19 15 -115 15 l -115 0 2 -362 z "></path><path id="pKI7xrbFT" d="M 6180 3015 c 0 -8 7 -15 15 -15 11 0 15 -11 15 -40 0 -33 3 -40 20 -40 18 0 20 7 20 55 0 55 0 55 -35 55 -24 0 -35 -5 -35 -15 z "></path><path id="pppABpdN1" d="M 6210 2365 c 0 -28 4 -35 20 -35 16 0 20 7 20 35 0 28 -4 35 -20 35 -16 0 -20 -7 -20 -35 z "></path></g></g><g id="lvpBEcxPpcphLQIumhowOv" fill="rgb(134,111,149)" style="transform: none;"><g><path id="p1Fz4ptx9p" d="M 110 8320 c 0 -20 5 -20 4835 -20 4110 0 4835 2 4835 14 0 7 -10 16 -22 20 -13 3 -2189 6 -4835 6 -4808 0 -4813 0 -4813 -20 z "></path><path id="pDDjXEUdZ" d="M 10048 8333 c -10 -2 -18 -11 -18 -19 0 -12 380 -14 2790 -14 l 2790 0 0 -60 c 0 -46 3 -60 15 -60 17 0 28 48 23 110 -3 45 -3 45 -2793 46 -1534 1 -2798 0 -2807 -3 z "></path><path id="pc3pTL4sN" d="M 14700 8015 c 0 -8 7 -15 15 -15 13 0 15 -44 15 -335 0 -291 -2 -335 -15 -335 -8 0 -15 -7 -15 -15 0 -10 11 -15 35 -15 35 0 35 0 36 133 0 101 3 125 11 105 7 -22 16 -28 39 -28 27 0 29 -3 29 -39 0 -35 6 -44 47 -80 26 -22 50 -38 55 -35 9 6 -53 103 -99 156 -18 21 -38 58 -44 83 -7 26 -17 45 -25 45 -11 0 -14 36 -14 195 0 195 0 195 -35 195 -24 0 -35 -5 -35 -15 z "></path><path id="p7wn0yFjq" d="M 2428 6733 c -618 -3 -618 -3 -618 -48 0 -45 0 -45 630 -45 630 0 630 0 630 30 0 25 4 30 24 30 19 0 25 -6 28 -27 3 -28 3 -28 286 -31 246 -2 282 0 282 13 0 8 -7 15 -15 15 -10 0 -15 10 -15 30 0 30 0 30 -227 30 -126 0 -264 2 -308 3 -44 2 -358 2 -697 0 z "></path><path id="pf0ni9onx" d="M 4340 6720 c 0 -17 7 -20 40 -20 33 0 40 3 40 20 0 17 -7 20 -40 20 -33 0 -40 -3 -40 -20 z "></path><path id="pHhWgzmaD" d="M 5467 6733 c -4 -3 -7 -19 -7 -35 0 -18 -5 -28 -15 -28 -8 0 -15 -7 -15 -15 0 -10 11 -15 35 -15 32 0 35 2 35 30 0 27 3 30 30 30 23 0 30 4 30 20 0 17 -7 20 -43 20 -24 0 -47 -3 -50 -7 z "></path><path id="p13Ny2X58K" d="M 6770 6720 c 0 -17 7 -20 50 -20 43 0 50 3 50 20 0 17 -7 20 -50 20 -43 0 -50 -3 -50 -20 z "></path><path id="p1FLzIOrsw" d="M 6930 6721 c 0 -21 3 -21 190 -21 190 0 190 0 190 -30 0 -30 0 -30 320 -30 320 0 320 0 320 45 0 45 0 45 -217 45 -120 0 -350 3 -510 7 -293 6 -293 6 -293 -16 z "></path><path id="py8robyAS" d="M 1810 6345 l 0 -245 630 0 630 0 0 245 0 245 -630 0 -630 0 0 -245 z "></path><path id="p92gD0jV1" d="M 3120 6345 l 0 -245 238 0 c 130 0 261 -3 290 -6 43 -6 52 -4 52 8 0 9 -9 18 -20 21 -19 5 -20 14 -20 221 0 185 2 216 15 216 8 0 15 7 15 15 0 13 -38 15 -285 15 l -285 0 0 -245 z "></path><path id="p0ExxsWP1" d="M 5430 6575 c 0 -8 7 -15 15 -15 12 0 15 -34 17 -215 l 3 -216 -185 1 c -102 0 -191 1 -197 0 -7 0 -13 -9 -13 -20 0 -19 7 -20 209 -20 181 0 210 2 215 16 3 9 6 121 6 250 0 234 0 234 -35 234 -24 0 -35 -5 -35 -15 z "></path><path id="pNs3sWzRR" d="M 6252 6343 l 3 -248 273 -3 c 272 -2 272 -2 272 33 0 24 -5 35 -15 35 -8 0 -15 -7 -15 -15 0 -13 -33 -15 -240 -15 l -240 0 0 194 c 0 107 -3 202 -6 211 -5 11 0 18 15 22 35 9 25 33 -14 33 -35 0 -35 0 -33 -247 z "></path><path id="pIjVe96ua" d="M 7310 6345 l 0 -245 289 0 c 159 0 303 -3 320 -6 31 -6 31 -6 31 245 l 0 251 -320 0 -320 0 0 -245 z "></path><path id="p1Hug1fJvV" d="M 4340 6145 c 0 -13 -27 -15 -182 -15 -194 0 -228 -4 -228 -26 0 -12 39 -14 220 -14 220 0 220 0 220 35 0 24 -5 35 -15 35 -8 0 -15 -7 -15 -15 z "></path><path id="p9iRkK4q9" d="M 5530 6125 c 0 -35 0 -35 80 -35 80 0 80 0 80 35 0 24 -5 35 -15 35 -8 0 -15 -7 -15 -15 0 -11 -12 -15 -50 -15 -38 0 -50 4 -50 15 0 8 -7 15 -15 15 -10 0 -15 -11 -15 -35 z "></path><path id="p1F2gOSNNZ" d="M 6840 6125 c 0 -35 0 -35 60 -35 60 0 60 0 60 35 0 24 -5 35 -15 35 -8 0 -15 -7 -15 -15 0 -10 -10 -15 -30 -15 -20 0 -30 5 -30 15 0 8 -7 15 -15 15 -10 0 -15 -11 -15 -35 z "></path><path id="p1FP4kl4KK" d="M 1812 5998 l 3 -63 872 -3 873 -2 2 -277 c 3 -278 3 -278 48 -278 45 0 45 0 48 328 2 281 4 327 17 327 20 0 19 16 -1 24 -9 3 -432 6 -940 6 l -925 0 3 -62 z "></path><path id="psT098b2W" d="M 6250 4175 l 0 -1885 -295 0 c -289 0 -295 0 -295 -20 0 -20 5 -20 313 -18 l 312 3 3 1888 c 2 1668 4 1887 17 1887 8 0 15 7 15 15 0 10 -11 15 -35 15 -35 0 -35 0 -35 -1885 z "></path><path id="pHh7xyVEO" d="M 7314 6051 c -2 -2 -4 -296 -4 -653 l 0 -648 -165 0 c -165 0 -165 0 -165 -35 0 -24 5 -35 15 -35 8 0 15 6 15 13 0 16 315 27 788 27 l 292 0 0 475 0 475 -70 0 -70 0 0 193 0 192 -316 0 c -174 0 -318 -2 -320 -4 z "></path><path id="pc4r6FMPx" d="M 8556 5348 c -3 -13 -6 -91 -6 -174 0 -129 2 -153 16 -158 9 -3 1023 -6 2255 -6 2232 0 2239 0 2239 20 0 20 -7 20 -2235 20 l -2235 0 0 160 c 0 130 -3 160 -14 160 -7 0 -16 -10 -20 -22 z "></path><path id="pXtJoXVm6" d="M 9940 4439 c 0 -12 7 -19 20 -19 11 0 20 6 20 14 0 7 -9 16 -20 19 -15 4 -20 0 -20 -14 z "></path><path id="pGAq33dO3" d="M 10778 4453 c -10 -2 -18 -11 -18 -19 0 -10 13 -14 45 -14 32 0 45 4 45 14 0 11 -33 28 -50 25 -3 -1 -13 -3 -22 -6 z "></path><path id="p11oRjzX4t" d="M 7368 4363 c -50 -3 -58 -7 -58 -23 0 -16 7 -20 35 -20 35 0 35 0 35 -690 0 -690 0 -690 37 -690 32 0 35 2 20 13 -16 11 -17 62 -15 715 2 386 3 701 3 700 0 -1 -26 -3 -57 -5 z "></path><path id="pxu8vVeA" d="M 8027 4356 c 4 -5 6 -29 4 -53 -2 -42 -2 -43 28 -43 29 0 31 2 31 40 0 22 1 43 3 47 1 4 -15 10 -35 14 -25 4 -35 2 -31 -5 z "></path><path id="p1HOaEg7YU" d="M 7220 4340 c 0 -16 7 -20 35 -20 28 0 35 4 35 20 0 16 -7 20 -35 20 -28 0 -35 -4 -35 -20 z "></path><path id="pl2j8YovI" d="M 9077 4069 c -6 -21 -10 -21 -126 -17 l -121 4 0 -118 0 -118 135 0 135 0 0 83 c 0 45 3 106 6 135 6 43 4 52 -8 52 -9 0 -18 -10 -21 -21 z "></path><path id="p7MctlaP3" d="M 11680 3971 c 0 -66 3 -126 6 -135 5 -14 32 -16 200 -16 221 0 199 -16 207 150 l 4 85 -189 -4 c -186 -3 -189 -3 -195 18 -3 12 -12 21 -19 21 -11 0 -14 -24 -14 -119 z "></path><path id="p1Du4MDzQX" d="M 8673 4053 l -113 -4 -1 -107 c -1 -59 0 -241 1 -405 2 -298 2 -298 -20 -304 -16 -4 -20 -11 -16 -27 3 -11 6 -132 6 -267 l 0 -246 393 -6 c 1099 -19 1790 -20 2257 -3 574 20 654 27 730 66 30 15 40 28 53 70 36 111 82 438 97 687 17 296 40 263 -185 263 l -195 0 0 -435 0 -435 -1290 0 -1290 0 0 435 0 435 -255 0 c -255 0 -255 0 -255 25 0 25 0 25 110 25 110 0 110 0 110 89 0 49 3 103 6 120 6 26 4 31 -12 29 -11 -1 -70 -4 -131 -5 z "></path><path id="proRleZLG" d="M 12118 3943 c 2 -65 6 -120 9 -123 3 -3 63 -7 134 -9 129 -3 129 -3 129 -32 0 -23 5 -29 21 -29 18 0 20 5 17 48 -3 47 -3 47 -120 50 l -117 3 -3 102 c -3 102 -3 102 -39 105 -35 3 -35 3 -31 -115 z "></path><path id="p030427Lk" d="M 3774 3901 c -16 -10 -47 -24 -69 -31 -22 -7 -49 -20 -60 -29 -11 -10 -47 -33 -80 -53 -144 -84 -139 -73 -57 -155 41 -40 79 -73 86 -73 7 0 35 -21 62 -46 61 -58 129 -114 138 -114 3 0 56 -44 117 -97 60 -53 123 -105 138 -114 15 -9 50 -39 77 -65 27 -27 73 -64 101 -83 29 -18 67 -51 84 -72 17 -22 52 -51 77 -66 26 -15 73 -53 106 -86 32 -32 77 -67 99 -78 22 -12 51 -34 64 -50 14 -16 90 -81 169 -145 79 -64 144 -120 144 -125 0 -5 17 -17 38 -28 21 -11 44 -27 51 -35 8 -9 17 -16 22 -16 5 0 9 52 9 115 0 115 0 115 -87 203 -49 48 -102 93 -119 100 -16 7 -37 25 -46 40 -9 15 -40 45 -69 67 -28 22 -68 55 -88 74 -20 19 -65 59 -101 89 -36 30 -95 81 -131 113 -36 33 -75 66 -87 75 -21 14 -22 14 -22 -11 0 -25 -3 -24 -76 37 -42 34 -91 79 -108 99 -17 20 -42 42 -56 49 -36 19 -92 69 -113 101 -10 15 -42 41 -70 57 -29 17 -69 50 -89 74 -36 44 -36 44 -26 167 5 68 8 125 6 127 -2 2 -17 -5 -34 -15 z "></path><path id="p1GcV8AbIe" d="M 12150 3175 l 0 -605 -1510 0 c -1504 0 -1510 0 -1510 -20 0 -20 5 -20 1528 -18 l 1527 3 3 608 c 2 530 4 607 17 607 8 0 15 7 15 15 0 10 -11 15 -35 15 -35 0 -35 0 -35 -605 z "></path><path id="p1055PS8Gs" d="M 8060 3260 c 0 -5 -7 -10 -15 -10 -11 0 -15 -11 -15 -36 0 -37 0 -37 38 -30 20 3 63 6 95 6 50 0 57 2 57 20 0 18 -7 20 -61 20 -52 0 -62 3 -66 20 -5 20 -33 29 -33 10 z "></path><path id="pq10ajJCC" d="M 7860 2865 c 0 -33 2 -35 35 -35 33 0 35 2 35 35 0 33 -2 35 -35 35 -33 0 -35 -2 -35 -35 z "></path><path id="pmQxrxxHi" d="M 8160 2376 c 0 -106 -3 -208 -6 -225 -6 -28 -4 -31 20 -31 26 0 26 0 26 205 l 0 205 190 0 c 183 0 190 1 190 20 0 19 -7 20 -210 20 l -210 0 0 -194 z "></path><path id="pMmuvSsIQ" d="M 7930 2155 c 0 -22 4 -25 38 -25 20 0 54 -3 75 -6 33 -6 37 -4 37 15 0 18 -6 21 -40 21 -22 0 -40 5 -40 10 0 6 -16 10 -35 10 -31 0 -35 -3 -35 -25 z "></path><path id="pxQyBKDxw" d="M 7246 2129 c -3 -17 -6 -47 -6 -65 0 -19 -13 -76 -30 -127 -80 -252 -119 -387 -125 -432 -7 -46 -26 -116 -92 -330 -58 -187 -63 -212 -63 -283 0 -88 15 -119 69 -145 21 -9 64 -44 97 -78 32 -33 82 -74 109 -90 28 -16 61 -42 72 -58 31 -41 160 -133 169 -120 4 6 12 35 19 63 7 28 13 42 14 31 1 -11 -4 -36 -10 -55 -19 -60 -21 -216 -3 -198 4 4 64 282 94 433 10 50 21 122 25 160 8 74 28 176 100 505 20 93 25 142 25 260 0 146 0 146 -54 179 -30 18 -62 41 -73 53 -21 24 -85 58 -108 58 -9 0 -26 10 -38 23 -12 13 -55 45 -96 71 -73 47 -73 47 -67 88 8 49 13 58 32 58 8 0 14 7 14 15 0 10 -10 15 -34 15 -30 0 -34 -4 -40 -31 z  m 439 -575 c -9 -43 -18 -80 -21 -83 -7 -7 -4 32 5 69 5 19 12 53 16 75 4 22 9 35 12 28 2 -6 -3 -47 -12 -89 z  m -30 -141 c -9 -37 -18 -20 -9 19 4 18 9 27 11 20 3 -7 2 -24 -2 -39 z  m -24 -105 c -8 -28 -9 -30 -10 -8 -1 34 12 80 17 58 2 -9 -1 -31 -7 -50 z  m -15 -84 c -4 -14 -9 -24 -12 -21 -3 2 -2 17 2 31 3 15 9 25 11 22 3 -3 2 -17 -1 -32 z  m -46 -311 c -22 -101 -28 -120 -29 -97 -1 30 30 166 37 160 3 -3 -1 -32 -8 -63 z  m -35 -170 c -9 -37 -18 -20 -9 19 4 18 9 27 11 20 3 -7 2 -24 -2 -39 z  m -20 -100 c -3 -19 -9 -33 -12 -30 -3 3 -2 25 2 49 5 24 10 37 12 30 3 -7 2 -29 -2 -49 z  m -21 -87 c -3 -21 -9 -35 -11 -32 -3 3 -2 21 1 42 4 20 10 34 12 31 3 -3 2 -21 -2 -41 z "></path></g></g><g id="lRn5gMWi7nS60lKFYhuVGl" fill="rgb(163,163,43)" style="transform: none;"><g><path id="poIBIfPIF" d="M 14740 7347 c 0 -9 -28 -17 -91 -25 -102 -14 -264 -62 -324 -97 -22 -13 -60 -28 -85 -35 -25 -6 -58 -24 -75 -39 -16 -15 -55 -46 -86 -69 -49 -37 -101 -88 -214 -212 -18 -19 -38 -52 -44 -72 -7 -20 -19 -42 -27 -48 -7 -7 -14 -18 -14 -25 0 -7 -6 -18 -14 -24 -8 -7 -26 -42 -41 -79 -15 -37 -31 -75 -36 -84 -40 -78 -40 -600 1 -676 4 -9 18 -43 30 -74 12 -31 39 -83 59 -115 21 -32 44 -75 50 -96 7 -20 20 -41 29 -46 9 -5 44 -42 77 -81 33 -39 92 -94 130 -122 39 -28 84 -63 100 -78 17 -15 48 -33 70 -40 22 -6 60 -22 85 -35 49 -25 162 -65 250 -86 36 -9 110 -14 210 -13 143 1 163 3 255 32 55 17 123 41 150 55 28 13 67 30 87 36 50 17 184 105 198 130 6 12 28 30 49 41 40 20 111 94 111 115 0 7 17 30 38 52 64 68 130 184 145 254 8 35 19 73 25 85 14 26 52 211 52 253 0 24 -4 31 -20 31 -16 0 -20 -7 -20 -37 -1 -44 -32 -189 -47 -218 -6 -11 -16 -47 -23 -80 -12 -59 -32 -106 -57 -133 -7 -7 -13 -20 -13 -28 0 -8 -4 -14 -10 -14 -5 0 -10 -5 -10 -10 0 -6 -9 -20 -20 -32 -11 -12 -20 -28 -20 -35 0 -7 -5 -13 -11 -13 -15 0 -35 -22 -44 -49 -7 -24 -74 -90 -106 -105 -10 -5 -19 -17 -19 -28 0 -10 -7 -18 -16 -18 -9 0 -27 -11 -40 -25 -13 -14 -28 -25 -34 -25 -5 0 -10 -4 -10 -10 0 -5 -6 -10 -14 -10 -8 0 -16 -4 -18 -8 -1 -4 -28 -18 -58 -31 -30 -13 -57 -27 -60 -31 -3 -4 -19 -10 -37 -13 -31 -6 -31 -6 -23 21 5 15 22 88 36 162 38 191 38 381 0 564 -31 149 -58 221 -108 291 -20 28 -45 68 -56 90 -11 22 -57 79 -102 128 -79 84 -83 87 -126 87 -42 0 -44 1 -44 29 0 22 -8 35 -32 52 -18 13 -47 35 -64 50 -18 14 -49 30 -70 34 -22 4 -57 15 -79 25 -22 10 -83 31 -135 47 -91 27 -104 28 -296 28 -150 0 -200 3 -197 12 3 6 11 14 19 17 8 3 14 15 14 26 0 11 6 20 13 20 22 0 57 45 57 73 0 23 4 27 29 27 20 0 36 9 49 25 11 14 24 25 29 25 5 0 23 14 41 30 18 17 37 30 41 30 4 0 18 11 30 24 12 13 44 29 69 36 26 6 61 20 79 31 56 35 205 79 306 92 97 11 97 11 97 44 0 18 -4 33 -10 33 -5 0 -10 -6 -10 -13 z "></path><path id="pAx8oV5AH" d="M 14780 7326 c 0 -33 0 -33 78 -40 80 -7 216 -42 270 -70 17 -9 40 -16 52 -16 11 0 20 -4 20 -10 0 -5 19 -15 43 -22 23 -6 44 -15 47 -18 11 -12 90 -60 100 -60 5 0 10 -4 10 -10 0 -5 6 -10 14 -10 7 0 16 -9 19 -20 3 -12 14 -20 25 -20 14 0 22 -8 24 -22 2 -13 11 -24 21 -26 24 -5 85 -70 93 -99 4 -16 14 -23 30 -23 19 0 24 -5 24 -25 0 -14 7 -28 15 -31 8 -4 15 -12 15 -19 0 -8 6 -20 13 -27 7 -7 19 -28 26 -45 7 -18 19 -33 26 -33 6 0 20 -37 32 -87 12 -49 28 -107 37 -131 9 -23 21 -83 28 -132 10 -75 15 -90 30 -90 13 0 18 8 18 29 0 40 -39 230 -52 255 -6 12 -18 50 -25 86 -7 35 -19 71 -26 80 -8 8 -32 47 -54 85 -23 39 -51 76 -62 83 -11 6 -28 29 -36 49 -20 46 -39 69 -88 100 -22 13 -63 48 -92 78 -103 103 -391 219 -597 240 -41 5 -58 11 -58 21 0 8 -4 14 -10 14 -5 0 -10 -15 -10 -34 z "></path><path id="pLSvCjNWT" d="M 5078 6672 c -34 -7 -20 -32 17 -32 23 0 35 5 35 14 0 15 -25 24 -52 18 z "></path><path id="pCqBzqtSU" d="M 5890 6519 c 0 -20 5 -21 93 -19 50 1 124 2 162 1 l 70 -1 0 -185 c 0 -185 0 -185 -22 -185 -16 0 -23 -6 -23 -20 0 -16 7 -20 34 -20 44 0 46 6 46 216 0 258 19 234 -186 234 -170 0 -174 -1 -174 -21 z "></path><path id="pyhCf8q3L" d="M 4400 6125 c 0 -33 2 -35 35 -35 28 0 35 4 35 20 0 15 -7 20 -25 20 -16 0 -25 6 -25 15 0 8 -4 15 -10 15 -5 0 -10 -16 -10 -35 z "></path><path id="p1EQsVZEA" d="M 5720 6125 c 0 -33 2 -35 35 -35 28 0 35 4 35 20 0 15 -7 20 -25 20 -16 0 -25 6 -25 15 0 8 -4 15 -10 15 -5 0 -10 -16 -10 -35 z "></path><path id="pKvTwYo2L" d="M 5078 6132 c -34 -7 -20 -32 17 -32 19 0 35 5 35 10 0 6 -6 10 -14 10 -8 0 -16 4 -18 8 -1 4 -11 6 -20 4 z "></path><path id="p1A1AtFKyE" d="M 4390 6025 c 0 -39 24 -50 33 -15 3 11 12 20 21 20 9 0 16 7 16 15 0 10 -11 15 -35 15 -33 0 -35 -2 -35 -35 z "></path><path id="pZ4N0S96F" d="M 5060 6046 c 0 -16 25 -24 53 -18 32 8 19 32 -18 32 -24 0 -35 -5 -35 -14 z "></path><path id="pvcWQOrkN" d="M 5720 6025 c 0 -19 5 -35 10 -35 6 0 10 7 10 15 0 10 10 15 30 15 23 0 30 4 30 20 0 17 -7 20 -40 20 -39 0 -40 -1 -40 -35 z "></path><path id="pTPJxFVrq" d="M 5880 6040 c 0 -19 7 -20 168 -20 l 167 0 -2 -257 -2 -258 -181 -3 c -172 -2 -180 -3 -180 -22 0 -20 6 -20 198 -18 l 197 3 3 255 c 2 140 0 274 -3 298 -6 42 -6 42 -186 42 -172 0 -179 -1 -179 -20 z "></path><path id="pY7UJMzwR" d="M 5720 5495 c 0 -34 1 -35 40 -35 33 0 40 3 40 20 0 16 -7 20 -30 20 -20 0 -30 5 -30 15 0 8 -4 15 -10 15 -5 0 -10 -16 -10 -35 z "></path><path id="pHPPOvHLd" d="M 5710 5415 c 0 -24 5 -35 15 -35 8 0 15 7 15 15 0 12 37 15 235 17 235 3 235 3 235 -22 0 -14 1 -133 1 -265 1 -214 0 -240 -15 -243 -32 -7 -17 -32 19 -32 35 0 35 0 35 294 0 259 -2 295 -16 300 -9 3 -130 6 -270 6 -254 0 -254 0 -254 -35 z "></path><path id="puxPjy3jQ" d="M 5710 4815 c 0 -39 24 -49 33 -14 4 16 13 20 39 19 56 -3 68 -1 68 15 0 12 -14 15 -70 15 -70 0 -70 0 -70 -35 z "></path><path id="paClCHfdJ" d="M 6193 4821 c 17 -6 18 -26 19 -271 0 -235 -2 -265 -16 -268 -32 -7 -17 -32 19 -32 35 0 35 0 35 290 0 290 0 290 -37 289 -26 0 -32 -3 -20 -8 z "></path><path id="pfUmBp2XD" d="M 9153 4453 c -21 -4 -23 -10 -23 -79 0 -59 3 -74 15 -74 16 0 16 3 19 90 1 55 1 55 139 58 117 2 137 0 137 -13 0 -8 7 -15 15 -15 24 0 18 27 -7 34 -25 6 -260 6 -295 -1 z "></path><path id="pQj8ebwZv" d="M 9498 4453 c -24 -6 -23 -33 1 -33 10 0 21 9 24 20 3 11 2 19 -1 19 -4 -1 -15 -3 -24 -6 z "></path><path id="pWkKZ0TpS" d="M 9998 4453 c -22 -5 -24 -33 -3 -33 8 0 15 7 15 16 0 12 9 14 43 12 42 -3 42 -3 43 -253 2 -301 1 -285 19 -285 13 0 15 37 15 269 0 269 0 269 -22 275 -26 6 -84 6 -110 -1 z "></path><path id="pkpUljFjF" d="M 10158 4453 c -17 -4 -18 -28 -18 -317 0 -313 0 -313 31 -320 17 -3 161 -6 320 -6 289 0 289 0 289 35 0 24 -5 35 -15 35 -8 0 -15 -7 -15 -15 0 -13 -38 -15 -285 -15 l -285 0 0 299 c 0 300 0 300 23 304 20 4 20 4 -3 4 -14 1 -33 -1 -42 -4 z "></path><path id="peBmgOdfZ" d="M 10750 4439 c 0 -12 7 -19 20 -19 11 0 20 6 20 14 0 7 -9 16 -20 19 -15 4 -20 0 -20 -14 z "></path><path id="puXx7shbj" d="M 10848 4453 c -22 -5 -24 -33 -3 -33 8 0 15 6 15 14 0 8 12 17 28 19 25 4 25 4 2 4 -14 1 -33 -1 -42 -4 z "></path><path id="pNSyLAfH0" d="M 11467 4452 c -16 -3 -17 -24 -15 -320 l 3 -317 103 -3 c 102 -3 102 -3 102 33 0 24 -4 35 -15 35 -8 0 -15 -7 -15 -15 0 -12 -14 -15 -70 -15 l -70 0 -2 303 c -3 283 -4 302 -21 299 z "></path><path id="pSdfQKSjM" d="M 7408 4363 c -10 -2 -18 -11 -18 -19 0 -21 18 -17 30 6 6 11 9 19 8 19 -2 -1 -11 -3 -20 -6 z "></path><path id="pcPrtwQth" d="M 7738 4360 c 160 -3 292 -8 292 -12 0 -5 0 -321 0 -703 0 -611 -2 -695 -15 -695 -8 0 -15 -4 -15 -10 0 -5 16 -10 35 -10 35 0 35 0 35 708 0 709 0 709 -25 720 -18 9 -112 11 -313 10 l -287 -3 293 -5 z "></path><path id="p1A2SpXXml" d="M 6180 4225 c 0 -8 7 -15 15 -15 8 0 15 -6 15 -12 1 -7 1 -127 1 -265 0 -244 1 -253 19 -253 19 0 20 9 20 280 0 280 0 280 -35 280 -24 0 -35 -5 -35 -15 z "></path><path id="pfy3Ru8f2" d="M 9130 4015 c 0 -37 24 -50 32 -17 6 27 -2 52 -18 52 -9 0 -14 -11 -14 -35 z "></path><path id="pfm2hgCJq" d="M 9132 3893 c 3 -78 3 -78 46 -81 37 -3 42 -1 42 17 0 16 -6 21 -25 21 -19 0 -25 6 -30 33 -4 18 -6 37 -5 42 5 26 -1 45 -15 45 -13 0 -15 -13 -13 -77 z "></path><path id="p9JS7jrf2" d="M 10096 3875 c -4 -16 -13 -25 -26 -25 -14 0 -20 -7 -20 -21 0 -17 5 -20 38 -17 36 3 37 4 40 46 2 31 0 42 -11 42 -8 0 -18 -11 -21 -25 z "></path><path id="pq6GxGNVN" d="M 9440 3865 c 0 -9 -9 -15 -25 -15 -18 0 -25 -5 -25 -20 0 -16 7 -20 35 -20 33 0 35 2 35 35 0 19 -4 35 -10 35 -5 0 -10 -7 -10 -15 z "></path><path id="pjnHS0Pc2" d="M 9500 3845 c 0 -35 0 -35 230 -35 230 0 230 0 230 35 0 19 -4 35 -10 35 -5 0 -10 -7 -10 -15 0 -13 -30 -15 -210 -15 -180 0 -210 2 -210 15 0 8 -4 15 -10 15 -5 0 -10 -16 -10 -35 z "></path><path id="pgazKrgWL" d="M 10840 3845 c 0 -35 0 -35 295 -35 295 0 295 0 295 35 0 19 -4 35 -10 35 -5 0 -10 -7 -10 -15 0 -13 -37 -15 -275 -15 -238 0 -275 2 -275 15 0 8 -4 15 -10 15 -5 0 -10 -16 -10 -35 z "></path><path id="pGQacTkmP" d="M 9140 3745 c 0 -19 5 -35 10 -35 6 0 10 7 10 15 0 13 50 15 390 15 340 0 390 -2 390 -15 0 -8 5 -15 10 -15 6 0 10 16 10 35 0 35 0 35 -410 35 -410 0 -410 0 -410 -35 z "></path><path id="pLdYCyjYV" d="M 9990 3745 c 0 -19 5 -35 10 -35 6 0 10 7 10 15 0 13 49 15 385 15 336 0 385 -2 385 -15 0 -8 7 -15 15 -15 10 0 15 11 15 35 0 35 0 35 -410 35 -410 0 -410 0 -410 -35 z "></path><path id="p11Z1FqMEs" d="M 10830 3745 c 0 -37 24 -50 32 -17 5 16 30 17 386 14 329 -2 382 -5 382 -17 0 -8 7 -15 15 -15 10 0 15 11 15 35 0 35 0 35 -415 35 -415 0 -415 0 -415 -35 z "></path><path id="pWMdtKp80" d="M 9130 3355 c 0 -220 2 -255 15 -255 18 0 17 -20 17 255 0 275 1 255 -17 255 -13 0 -15 -35 -15 -255 z "></path><path id="pSYcNYPSG" d="M 6216 3578 c -3 -13 -4 -132 -3 -266 l 2 -242 -237 0 c -205 0 -238 2 -238 15 0 8 -7 15 -15 15 -10 0 -15 -11 -15 -35 0 -35 0 -35 264 -35 264 0 264 0 270 23 3 12 6 140 6 285 0 216 -2 262 -14 262 -7 0 -16 -10 -20 -22 z "></path><path id="pG0K0wkHI" d="M 4390 3206 c 0 -26 5 -36 20 -41 11 -3 20 -11 20 -16 0 -5 11 -9 25 -9 20 0 25 -5 25 -25 0 -20 5 -25 25 -25 18 0 25 -5 25 -20 0 -16 7 -20 35 -20 25 0 35 -4 35 -16 0 -18 23 -44 39 -44 6 0 11 -7 11 -15 0 -8 8 -15 19 -15 10 0 21 -9 24 -20 4 -15 14 -20 36 -20 26 0 31 -4 31 -25 0 -22 4 -25 38 -25 37 1 37 1 2 31 -19 17 -57 49 -85 71 -27 22 -56 49 -63 59 -7 11 -19 19 -27 19 -28 0 -205 155 -205 180 0 6 -7 10 -15 10 -10 0 -15 -10 -15 -34 z "></path><path id="pjYCaF7k3" d="M 9130 3055 c 0 -37 24 -50 32 -17 6 27 -2 52 -18 52 -9 0 -14 -11 -14 -35 z "></path><path id="pCeeM4YjQ" d="M 6216 2978 c -3 -13 -5 -157 -6 -320 0 -164 0 -305 0 -313 0 -8 -7 -15 -15 -15 -8 0 -15 -7 -15 -15 0 -10 11 -15 35 -15 35 0 35 0 35 350 0 291 -2 350 -14 350 -7 0 -16 -10 -20 -22 z "></path><path id="pcwxV2GC6" d="M 9130 2960 c 0 -39 1 -40 35 -40 24 0 35 5 35 15 0 8 -7 15 -15 15 -8 0 -17 11 -21 25 -10 41 -34 31 -34 -15 z "></path><path id="pdeuJlOn3" d="M 7390 2955 c 0 -33 2 -35 35 -35 24 0 35 5 35 15 0 8 -7 15 -15 15 -8 0 -20 9 -27 20 -19 29 -28 24 -28 -15 z "></path><path id="p1HOQmdL5F" d="M 9940 2974 c 0 -9 -9 -18 -20 -21 -35 -9 -24 -33 15 -33 33 0 35 2 35 35 0 24 -5 35 -15 35 -8 0 -15 -7 -15 -16 z "></path><path id="pvHKXC8pB" d="M 9980 2955 c 0 -34 1 -35 40 -35 46 0 56 24 15 34 -14 4 -25 13 -25 21 0 8 -7 15 -15 15 -10 0 -15 -11 -15 -35 z "></path><path id="pEPLB8SY6" d="M 4950 2748 c 0 -39 12 -48 61 -48 35 0 38 15 7 31 -13 6 -33 21 -45 32 -23 20 -23 20 -23 -15 z "></path><path id="pp2VJJShc" d="M 5060 2675 c 0 -15 6 -25 14 -25 19 0 27 37 9 44 -22 9 -23 8 -23 -19 z "></path><path id="pcPZkCMxU" d="M 5710 2335 c 0 -33 2 -35 35 -35 39 0 50 24 15 33 -11 3 -20 12 -20 21 0 9 -7 16 -15 16 -10 0 -15 -11 -15 -35 z "></path></g></g><g id="l3w4FV7q5qAPZ7Uv21pRoxU" fill="rgb(108,95,121)" style="transform: none;"><g><path id="pNZw5haSV" d="M 1707 8332 l -1597 -2 0 -165 0 -165 4225 0 c 3749 0 4225 -2 4225 -15 0 -13 257 -15 2250 -15 1993 0 2250 2 2250 15 0 13 100 15 840 15 840 0 840 0 839 -37 -2 -61 0 -73 16 -73 11 0 15 11 15 40 0 29 4 40 15 40 8 0 15 7 15 15 0 13 53 15 420 15 l 419 0 3 163 c 2 89 0 163 -3 165 -7 3 -11984 8 -13932 4 z "></path><path id="pDx5gf4yt" d="M 14772 7484 c 3 -40 28 -61 28 -24 0 18 11 12 70 -41 39 -34 73 -59 76 -56 4 3 -7 27 -22 52 -20 31 -36 45 -51 45 -16 0 -22 7 -25 28 -3 23 -8 27 -41 30 -38 3 -38 3 -35 -34 z "></path><path id="pMEu513Bo" d="M 14740 7344 c 0 -9 -9 -18 -20 -21 -19 -5 -20 -14 -20 -204 0 -170 -2 -199 -15 -199 -19 0 -21 -66 -2 -73 6 -3 -7 -6 -30 -6 -33 -1 -43 -5 -48 -22 -4 -12 -16 -30 -26 -40 -12 -12 -19 -33 -19 -59 0 -38 2 -40 29 -40 42 0 61 9 61 30 0 11 10 19 25 22 25 5 25 4 25 -62 0 -48 4 -71 15 -80 8 -7 15 -25 15 -41 0 -22 6 -30 25 -35 14 -3 32 -3 41 0 9 4 23 1 30 -5 12 -10 14 6 14 95 0 106 0 106 34 106 28 0 35 -4 40 -25 5 -21 12 -25 41 -25 33 0 35 2 35 34 0 19 -7 41 -15 50 -8 8 -15 19 -15 25 0 6 -7 11 -15 11 -9 0 -15 9 -15 25 0 14 -4 25 -10 25 -5 0 -10 6 -10 13 0 16 -42 57 -58 57 -9 0 -12 54 -12 209 0 200 -1 209 -20 214 -11 3 -20 12 -20 21 0 11 -9 16 -30 16 -21 0 -30 -5 -30 -16 z  m 60 -475 c 0 -28 -3 -31 -22 -25 -13 3 -26 6 -30 6 -5 0 -8 11 -8 25 0 21 5 25 30 25 27 0 30 -3 30 -31 z "></path><path id="pJPOCNIkI" d="M 3046 6732 c -15 -14 -4 -32 19 -32 30 0 34 25 6 33 -11 3 -22 2 -25 -1 z "></path><path id="p1EUIDyVo" d="M 5470 6718 c 0 -15 9 -18 46 -18 37 0 45 3 42 16 -5 25 -88 26 -88 2 z "></path><path id="p015wPtwz" d="M 3120 6685 c 0 -45 0 -45 35 -45 39 0 49 24 14 33 -17 5 -20 11 -17 31 4 20 1 26 -13 26 -16 0 -19 -8 -19 -45 z "></path><path id="poexDTiHA" d="M 7310 6710 c 0 -11 7 -20 15 -20 8 0 15 7 15 15 0 12 35 15 233 18 l 232 2 -247 3 c -242 2 -248 2 -248 -18 z "></path><path id="pGs6zrNxR" d="M 6930 6695 c 0 -16 -6 -25 -15 -25 -8 0 -15 -7 -15 -15 0 -10 11 -15 35 -15 34 0 35 1 35 40 0 33 -3 40 -20 40 -15 0 -20 -7 -20 -25 z "></path><path id="pwjVWSwQt" d="M 4380 6675 c 0 -33 2 -35 35 -35 24 0 35 5 35 15 0 8 -7 15 -15 15 -8 0 -15 9 -15 20 0 13 -7 20 -20 20 -16 0 -20 -7 -20 -35 z "></path><path id="p134QwmmAt" d="M 7910 6615 c 0 -48 2 -55 20 -55 18 0 20 7 20 55 0 48 -2 55 -20 55 -18 0 -20 -7 -20 -55 z "></path><path id="p47CgpAuY" d="M 4380 6345 c 0 -245 0 -245 35 -245 24 0 35 5 35 15 0 8 -6 14 -12 13 -10 -2 -14 47 -16 215 -2 189 0 217 13 217 8 0 15 7 15 15 0 10 -11 15 -35 15 -35 0 -35 0 -35 -245 z "></path><path id="pdDhGCygC" d="M 5700 6505 c 0 -28 4 -35 20 -35 11 0 20 7 20 15 0 8 7 15 15 15 8 0 15 9 15 20 0 16 -7 20 -35 20 -33 0 -35 -2 -35 -35 z "></path><path id="p11EuaS5GR" d="M 6180 6525 c 0 -8 7 -15 16 -15 9 0 18 -9 21 -20 9 -35 33 -24 33 15 0 33 -2 35 -35 35 -24 0 -35 -5 -35 -15 z "></path><path id="p4fKwc6R0" d="M 3040 6145 c 0 -13 -75 -15 -615 -15 -608 0 -615 0 -615 -20 0 -20 7 -20 630 -20 630 0 630 0 630 35 0 24 -5 35 -15 35 -8 0 -15 -7 -15 -15 z "></path><path id="pKbmiRoBy" d="M 3120 6125 c 0 -35 0 -35 285 -35 236 0 285 2 285 14 0 23 -34 26 -292 26 -214 0 -248 2 -248 15 0 8 -7 15 -15 15 -10 0 -15 -11 -15 -35 z "></path><path id="pmUffIzWs" d="M 5470 6144 c 0 -9 -9 -18 -20 -21 -35 -9 -24 -33 15 -33 33 0 35 2 35 35 0 24 -5 35 -15 35 -8 0 -15 -7 -15 -16 z "></path><path id="pkV1W2Avs" d="M 5700 6125 c 0 -33 2 -35 35 -35 29 0 35 4 35 21 0 12 -4 17 -11 14 -6 -4 -13 2 -16 14 -3 12 -13 21 -24 21 -15 0 -19 -7 -19 -35 z "></path><path id="pKDjHbFM3" d="M 6250 6125 c 0 -33 2 -35 35 -35 39 0 50 24 15 33 -11 3 -20 12 -20 21 0 9 -7 16 -15 16 -10 0 -15 -11 -15 -35 z "></path><path id="pk7KBZ3V0" d="M 7310 6125 c 0 -35 0 -35 300 -35 260 0 300 -2 300 -15 0 -13 -40 -15 -300 -15 -300 0 -300 0 -300 -35 0 -36 25 -51 32 -20 3 14 41 16 303 18 300 2 300 2 300 52 0 50 0 50 -302 53 -260 2 -303 4 -303 17 0 8 -7 15 -15 15 -10 0 -15 -11 -15 -35 z "></path><path id="p10HsRfKCo" d="M 1810 6041 c 0 -14 5 -18 20 -14 11 3 20 12 20 19 0 8 -9 14 -20 14 -13 0 -20 -7 -20 -19 z "></path><path id="p6Y5QHTvL" d="M 3610 6046 c 0 -16 32 -26 60 -19 37 10 23 33 -20 33 -27 0 -40 -4 -40 -14 z "></path><path id="pGkg5sLwY" d="M 4380 4635 c 0 -1418 0 -1425 -20 -1425 -33 0 -23 -26 28 -70 36 -32 48 -38 50 -26 2 9 7 16 12 16 11 0 20 -38 8 -42 -11 -4 4 -18 92 -91 36 -29 81 -69 101 -88 20 -19 60 -52 88 -74 29 -22 59 -51 68 -65 8 -14 35 -37 60 -50 25 -13 68 -50 96 -82 44 -51 102 -98 121 -98 3 0 6 11 6 25 0 14 -6 25 -13 25 -7 0 -18 9 -25 20 -7 11 -19 20 -27 20 -8 0 -15 7 -15 15 0 8 -4 15 -10 15 -5 0 -10 7 -10 15 0 8 7 15 15 15 8 0 15 -4 15 -10 0 -5 7 -10 15 -10 8 0 15 -7 15 -15 0 -8 9 -15 21 -15 16 0 20 5 17 27 -2 21 -14 33 -53 52 -27 14 -59 37 -69 50 -11 13 -54 49 -95 80 -110 81 -221 172 -221 181 0 6 -44 30 -55 30 -3 0 -5 -11 -5 -24 0 -15 7 -26 18 -29 13 -4 11 -5 -5 -6 -17 -1 -23 5 -23 18 0 11 -5 23 -11 27 -8 4 -7 9 2 15 10 6 6 13 -16 31 -17 12 -50 42 -74 65 -24 24 -48 43 -53 43 -4 0 -8 637 -8 1415 0 1251 2 1415 15 1415 8 0 15 7 15 15 0 10 -11 15 -35 15 -35 0 -35 0 -35 -1425 z  m 359 -1732 c 0 -17 -3 -22 -6 -13 -4 8 -13 20 -22 27 -14 11 -13 12 7 13 18 0 22 -5 21 -27 z  m 111 -84 c 0 -13 7 -19 24 -19 17 0 25 -7 28 -24 5 -24 5 -24 -28 -9 -18 9 -35 26 -38 40 -4 14 -14 23 -26 23 -11 0 -20 4 -20 8 0 5 14 7 30 4 21 -3 30 -10 30 -23 z  m 110 -99 c 0 -5 -7 -10 -15 -10 -8 0 -15 5 -15 10 0 6 7 10 15 10 8 0 15 -4 15 -10 z "></path><path id="pkIIoEXVp" d="M 5700 6025 c 0 -28 4 -35 20 -35 11 0 20 7 20 15 0 9 7 18 15 21 30 12 16 34 -20 34 -33 0 -35 -2 -35 -35 z "></path><path id="p12ons1DLz" d="M 5700 5495 c 0 -33 2 -35 35 -35 36 0 50 22 20 34 -8 3 -15 12 -15 21 0 8 -9 15 -20 15 -16 0 -20 -7 -20 -35 z "></path><path id="p18uvUSYKK" d="M 5700 5415 c 0 -28 4 -35 20 -35 13 0 20 7 20 20 0 11 7 20 15 20 8 0 15 7 15 15 0 10 -11 15 -35 15 -33 0 -35 -2 -35 -35 z "></path><path id="pyhUZ1PTS" d="M 5720 4875 c 0 -35 0 -35 260 -35 260 0 260 0 260 35 0 19 -4 35 -10 35 -5 0 -10 -7 -10 -15 0 -13 -33 -15 -240 -15 -207 0 -240 2 -240 15 0 8 -4 15 -10 15 -5 0 -10 -16 -10 -35 z "></path><path id="pzW0XPcA5" d="M 6970 4535 c 0 -205 0 -205 35 -205 24 0 35 5 35 15 0 8 -7 15 -15 15 -13 0 -15 27 -15 180 0 153 2 180 15 180 8 0 15 5 15 10 0 6 -16 10 -35 10 -35 0 -35 0 -35 -205 z "></path><path id="p1CU1Xqh9n" d="M 9463 4443 c -19 -4 -23 -11 -23 -39 0 -27 4 -34 20 -34 19 0 20 -7 20 -260 0 -253 1 -260 20 -260 20 0 20 7 20 300 0 329 5 305 -57 293 z "></path><path id="pXreSvFwy" d="M 9940 4430 c 0 -11 7 -20 15 -20 13 0 15 -39 15 -295 0 -295 0 -295 35 -295 24 0 35 5 35 15 0 8 -7 15 -15 15 -13 0 -15 40 -15 300 0 300 0 300 -35 300 -28 0 -35 -4 -35 -20 z "></path><path id="pX0Grpl9G" d="M 10814 4413 c 3 -21 6 -156 6 -300 0 -256 1 -263 20 -263 20 0 20 7 20 300 0 300 0 300 -26 300 -25 0 -26 -2 -20 -37 z "></path><path id="pqYKWhOWV" d="M 11410 4430 c 0 -13 7 -20 20 -20 13 0 20 7 20 20 0 13 -7 20 -20 20 -13 0 -20 -7 -20 -20 z "></path><path id="pJoWVoMG6" d="M 11670 4240 c 0 -203 1 -210 20 -210 19 0 20 7 20 210 0 203 -1 210 -20 210 -19 0 -20 -7 -20 -210 z "></path><path id="pQG73MimS" d="M 7210 3224 c 0 -938 2 -1134 13 -1134 18 0 7 -80 -21 -165 -11 -33 -34 -107 -52 -165 -17 -58 -38 -123 -45 -145 -8 -22 -19 -69 -25 -105 -9 -61 -35 -155 -96 -345 -13 -44 -31 -102 -39 -130 -17 -57 -21 -239 -5 -215 5 8 10 29 10 45 0 30 24 123 73 280 64 208 85 284 92 330 6 45 45 180 125 432 17 51 30 108 30 127 0 18 3 48 6 66 7 32 7 32 458 29 l 451 -4 3 208 c 2 199 3 207 22 207 20 0 20 8 20 344 l 0 343 -67 -1 -68 -1 -3 561 c -2 562 -2 562 -27 566 -25 5 -25 5 -25 -689 0 -382 -2 -698 -5 -704 -4 -5 -132 -9 -310 -9 -281 0 -304 1 -308 18 -2 9 -4 326 -3 704 l 1 687 -102 -1 -103 0 0 -1134 z "></path><path id="p1BDqpMAOU" d="M 5700 4215 c 0 -28 4 -35 20 -35 11 0 20 7 20 15 0 12 18 15 100 15 93 0 100 1 100 20 0 19 -7 20 -120 20 -120 0 -120 0 -120 -35 z "></path><path id="pU3CLV2oC" d="M 6110 4230 c 0 -18 7 -20 55 -20 42 0 55 -3 55 -15 0 -8 5 -15 10 -15 6 0 10 16 10 35 0 35 0 35 -65 35 -58 0 -65 -2 -65 -20 z "></path><path id="pewQ9RhjL" d="M 9076 4058 c -3 -13 -6 -65 -6 -115 0 -93 0 -93 -105 -93 -87 0 -105 3 -105 15 0 8 -7 15 -15 15 -10 0 -15 -11 -15 -35 0 -36 0 -36 138 -33 l 137 3 3 133 c 2 108 0 132 -12 132 -7 0 -16 -10 -20 -22 z "></path><path id="pC3oPQWJr" d="M 8787 4053 c -4 -3 -7 -51 -7 -105 l 0 -98 -110 0 c -104 0 -110 -1 -110 -20 0 -20 5 -20 128 -18 l 127 3 3 103 c 2 94 4 102 22 102 13 0 20 7 20 20 0 16 -7 20 -33 20 -19 0 -37 -3 -40 -7 z "></path><path id="pzaGBtICQ" d="M 12067 4053 c -4 -3 -7 -30 -7 -60 0 -46 3 -53 20 -53 17 0 20 7 22 43 1 23 4 -5 7 -63 6 -105 6 -105 59 -108 40 -2 52 0 52 11 0 8 -9 17 -20 20 -18 5 -20 14 -20 105 0 100 0 100 -31 106 -41 8 -74 8 -82 -1 z  m 95 -125 c -6 -97 -12 -100 -12 -5 0 43 4 77 8 77 5 0 7 -33 4 -72 z "></path><path id="pwKantqSu" d="M 12055 3880 c -7 -30 -7 -30 -171 -30 -164 0 -164 0 -170 25 -11 44 -34 30 -34 -20 0 -45 0 -45 194 -45 107 0 201 3 210 6 16 6 21 48 10 78 -10 26 -32 18 -39 -14 z "></path><path id="p7a9teASH" d="M 11410 3870 c 0 -10 -8 -23 -17 -29 -26 -14 -16 -18 60 -26 63 -7 67 -6 67 13 0 13 -6 19 -17 18 -10 0 -18 6 -18 14 0 15 -24 27 -57 29 -12 1 -18 -6 -18 -19 z "></path><path id="pBJfzBwSj" d="M 10750 3859 c 0 -15 -5 -19 -15 -15 -10 4 -15 -1 -15 -14 0 -16 7 -20 35 -20 33 0 35 2 35 35 0 28 -4 35 -20 35 -14 0 -20 -7 -20 -21 z "></path><path id="prD3gxYeh" d="M 11630 3859 c 0 -15 -5 -19 -15 -15 -10 4 -15 -1 -15 -14 0 -16 7 -20 35 -20 33 0 35 2 35 35 0 28 -4 35 -20 35 -14 0 -20 -7 -20 -21 z "></path><path id="pqpIswbu9" d="M 8560 3760 c 0 -19 7 -20 255 -20 l 255 0 0 -435 0 -435 1320 0 c 1313 0 1320 0 1320 20 0 20 -7 20 -380 20 -373 0 -380 0 -380 20 0 17 -7 20 -45 20 -45 0 -45 0 -45 55 0 48 -2 55 -20 55 -20 0 -20 7 -20 275 0 268 0 275 20 275 18 0 20 7 20 70 0 56 3 70 15 70 8 0 15 7 15 15 0 12 -14 15 -70 15 -56 0 -70 -3 -70 -15 0 -8 7 -15 15 -15 13 0 15 -51 15 -400 0 -349 -2 -400 -15 -400 -8 0 -15 -6 -15 -14 0 -10 14 -16 43 -19 23 -2 -90 -4 -250 -5 -287 -2 -293 -2 -293 18 0 19 -7 20 -120 20 l -120 0 0 395 c 0 342 2 396 15 401 30 12 16 34 -20 34 -35 0 -35 0 -35 -400 0 -349 -2 -400 -15 -400 -8 0 -15 -7 -15 -15 0 -8 -9 -15 -20 -15 -13 0 -20 -7 -20 -20 0 -19 -7 -20 -175 -20 -168 0 -175 1 -175 20 0 19 -7 20 -195 20 -167 0 -195 2 -195 15 0 8 -7 15 -15 15 -10 0 -15 -11 -15 -35 0 -19 -4 -35 -10 -35 -7 0 -10 152 -10 435 l 0 435 -275 0 c -268 0 -275 0 -275 -20 z "></path><path id="pyD7Zjwsy" d="M 11680 3745 c 0 -24 5 -35 15 -35 8 0 15 7 15 15 0 13 25 15 165 15 142 0 165 -2 165 -15 0 -70 -24 -383 -36 -475 -23 -179 -53 -343 -71 -400 -33 -104 -74 -111 -783 -136 -365 -13 -602 -15 -1200 -10 -410 4 -761 9 -780 11 -19 2 -164 4 -322 5 l -288 2 0 209 c 0 202 -1 209 -20 209 -20 0 -20 -7 -20 -299 0 -276 1 -299 18 -303 9 -2 833 -2 1830 0 l 1812 4 0 604 c 0 530 2 604 15 604 8 0 15 7 15 15 0 13 -36 15 -265 15 -265 0 -265 0 -265 -35 z "></path><path id="pP8sH3v5T" d="M 5700 3605 c 0 -28 4 -35 20 -35 11 0 20 7 20 15 0 8 9 15 20 15 13 0 20 7 20 20 0 17 -7 20 -40 20 -39 0 -40 -1 -40 -35 z "></path><path id="p3ZjqoJzt" d="M 5820 3620 c 0 -19 7 -20 200 -20 171 0 200 -2 200 -15 0 -8 7 -15 15 -15 10 0 15 11 15 35 0 35 0 35 -215 35 -208 0 -215 -1 -215 -20 z "></path><path id="pLdt76GZS" d="M 8520 3205 c 0 -18 5 -25 20 -25 15 0 20 7 20 25 0 18 -5 25 -20 25 -15 0 -20 -7 -20 -25 z "></path><path id="p161XDL5fS" d="M 5700 3035 c 0 -58 2 -65 20 -65 11 0 20 7 20 15 0 8 7 15 15 15 10 0 15 10 15 30 0 20 -5 30 -15 30 -8 0 -15 9 -15 20 0 13 -7 20 -20 20 -18 0 -20 -7 -20 -65 z "></path><path id="pHZrqT3ue" d="M 5900 3020 c 0 -16 7 -20 35 -20 28 0 35 4 35 20 0 16 -7 20 -35 20 -28 0 -35 -4 -35 -20 z "></path><path id="p14TFHdSoO" d="M 6180 3020 c 0 -13 7 -20 20 -20 11 0 20 -7 20 -15 0 -8 7 -15 15 -15 10 0 15 11 15 35 0 33 -2 35 -35 35 -28 0 -35 -4 -35 -20 z "></path><path id="pBt5SAIhN" d="M 5700 2335 c 0 -33 2 -35 35 -35 24 0 35 5 35 15 0 8 -7 15 -15 15 -8 0 -15 9 -15 20 0 13 -7 20 -20 20 -16 0 -20 -7 -20 -35 z "></path><path id="pMTo70Rmz" d="M 6220 2345 c 0 -9 -9 -15 -25 -15 -18 0 -25 -5 -25 -20 0 -16 7 -20 35 -20 33 0 35 2 35 35 0 19 -4 35 -10 35 -5 0 -10 -7 -10 -15 z "></path><path id="pxqG4g0OJ" d="M 5880 2310 c 0 -17 7 -20 40 -20 33 0 40 3 40 20 0 17 -7 20 -40 20 -33 0 -40 -3 -40 -20 z "></path></g></g><g id="l2DQkFzAIGAO4D7VToBWEwY" fill="rgb(118,122,32)" style="transform: none;"><g><path id="pRp6fIW8R" d="M 14739 7313 c -1 -24 -3 -29 -6 -15 -3 17 -11 22 -36 22 -94 0 -283 -50 -362 -95 -22 -13 -60 -28 -83 -35 -24 -6 -67 -30 -96 -53 -29 -23 -78 -62 -109 -87 -111 -87 -276 -303 -219 -286 66 20 171 28 296 23 120 -4 157 -10 246 -37 58 -17 109 -35 115 -40 5 -4 36 -15 69 -23 32 -9 70 -27 85 -40 14 -13 40 -34 58 -46 32 -22 32 -22 36 86 2 87 3 81 3 -30 -1 -84 3 -137 9 -138 6 -1 25 -1 42 -1 28 0 44 -12 114 -86 45 -48 90 -105 101 -127 11 -22 36 -62 56 -90 50 -70 77 -142 108 -291 38 -182 37 -326 -4 -526 -25 -121 -37 -158 -66 -205 -20 -32 -36 -62 -36 -66 0 -13 45 3 171 59 128 57 178 88 246 150 23 22 63 57 89 79 26 22 53 55 61 73 7 18 20 35 28 38 8 3 43 52 79 107 47 75 67 118 76 162 7 33 17 69 23 80 17 33 45 175 53 265 7 94 -15 281 -42 354 -9 23 -24 74 -34 114 -10 40 -24 80 -32 90 -8 9 -29 42 -46 72 -17 30 -47 71 -66 89 -20 19 -36 41 -36 48 0 18 -79 103 -95 103 -8 0 -31 20 -52 44 -33 38 -169 136 -189 136 -3 0 -48 18 -98 39 -119 52 -214 79 -305 87 -57 6 -75 4 -82 -7 -6 -10 -9 -6 -9 14 0 26 -19 39 -21 15 -1 -7 -1 -114 1 -238 1 -182 5 -230 17 -249 15 -24 15 -24 -23 -16 -49 9 -51 11 -31 33 15 16 17 48 17 250 0 148 -4 232 -10 232 -5 0 -11 -17 -11 -37 z  m 68 -295 c -1 -51 -3 -10 -3 92 0 102 2 143 3 93 2 -51 2 -135 0 -185 z  m -70 -5 c -1 -49 -3 -9 -3 87 0 96 2 136 3 88 2 -49 2 -127 0 -175 z  m 70 -420 c -2 -37 -3 -9 -3 62 0 72 1 102 3 68 2 -34 2 -93 0 -130 z  m -27 60 c 0 -56 -4 -93 -10 -93 -6 0 -10 42 -10 108 0 73 3 102 10 92 5 -8 10 -57 10 -107 z "></path><path id="pXar4vBVj" d="M 4380 6690 c 0 -39 1 -40 35 -40 19 0 35 5 35 10 0 6 -8 10 -18 10 -15 0 -18 6 -14 30 4 25 1 30 -17 30 -18 0 -21 -6 -21 -40 z "></path><path id="p18cVHix69" d="M 4380 6545 c 0 -24 5 -35 15 -35 13 0 20 18 16 43 0 4 8 7 19 7 11 0 20 5 20 10 0 6 -16 10 -35 10 -33 0 -35 -2 -35 -35 z "></path><path id="p1E4umYOBT" d="M 5704 6527 c -2 -7 -3 -107 -2 -222 l 3 -210 273 -3 c 272 -2 272 -2 272 33 0 36 -25 51 -32 20 -3 -13 -38 -16 -243 -18 l -240 -2 0 190 0 190 74 -3 c 91 -4 141 4 141 23 0 20 -238 22 -246 2 z "></path><path id="pLbECwAfs" d="M 4380 6156 c 0 -71 -27 -66 381 -66 309 0 369 2 369 14 0 8 -11 17 -25 20 -14 4 -171 6 -348 6 -177 0 -327 0 -333 0 -7 0 -12 6 -11 13 1 33 -4 47 -18 47 -10 0 -15 -10 -15 -34 z "></path><path id="pIkL9fHj0" d="M 5705 6047 c -3 -7 -4 -140 -3 -297 l 3 -285 113 -3 c 91 -2 112 0 112 12 0 19 -29 25 -119 23 l -76 -2 0 266 0 265 68 -4 c 84 -5 137 4 137 23 0 20 -228 22 -235 2 z "></path><path id="p1Gl4EtC5p" d="M 6180 6045 c 0 -8 7 -15 16 -15 9 0 18 -9 21 -20 9 -35 33 -24 33 15 0 33 -2 35 -35 35 -24 0 -35 -5 -35 -15 z "></path><path id="pbAwj3jGq" d="M 4380 6000 c 0 -29 4 -40 15 -40 14 0 20 16 17 52 -1 10 7 18 21 21 13 3 7 5 -15 6 -38 1 -38 1 -38 -39 z "></path><path id="pc1rvcufC" d="M 6220 5514 c 0 -9 -9 -18 -20 -21 -35 -9 -24 -33 15 -33 33 0 35 2 35 35 0 24 -5 35 -15 35 -8 0 -15 -7 -15 -16 z "></path><path id="p1CEPrOAnc" d="M 6180 5435 c 0 -8 7 -15 16 -15 9 0 18 -9 21 -20 9 -35 33 -24 33 15 0 33 -2 35 -35 35 -24 0 -35 -5 -35 -15 z "></path><path id="py72kxpXg" d="M 5700 4845 c 0 -595 0 -595 35 -595 24 0 35 5 35 15 0 8 -7 15 -15 15 -13 0 -15 37 -15 270 0 233 2 270 15 270 20 0 20 46 0 53 -12 5 -15 50 -17 277 -3 252 -2 270 15 270 9 0 17 5 17 10 0 6 -16 10 -35 10 -35 0 -35 0 -35 -595 z "></path><path id="pEzsUqORK" d="M 6180 4835 c 0 -8 7 -15 16 -15 9 0 18 -9 21 -20 9 -35 33 -24 33 15 0 33 -2 35 -35 35 -24 0 -35 -5 -35 -15 z "></path><path id="p1BTxdvvAL" d="M 9440 4153 c 0 -163 -2 -298 -4 -300 -2 -2 -64 -4 -137 -5 -116 0 -134 2 -137 16 -7 32 -32 17 -32 -19 0 -35 0 -35 255 -34 215 0 255 2 255 15 0 15 -9 17 -75 18 -35 1 -40 4 -48 33 -5 18 -17 34 -26 36 -14 4 -13 5 2 6 20 1 19 -15 19 216 0 230 1 213 -19 218 -16 4 -16 5 -1 6 10 1 18 12 21 29 11 54 6 62 -34 62 -38 0 -38 0 -39 -297 z "></path><path id="pNWFkFCh2" d="M 10130 4430 c 0 -13 7 -20 20 -20 13 0 20 7 20 20 0 13 -7 20 -20 20 -13 0 -20 -7 -20 -20 z "></path><path id="pmcNNorNW" d="M 10752 4145 c 3 -267 1 -305 -12 -304 -34 3 -50 -2 -50 -16 0 -16 36 -20 78 -9 22 6 22 6 22 320 0 309 0 314 -20 314 -20 0 -21 -4 -18 -305 z "></path><path id="pv4rUPUEG" d="M 10820 4415 c 0 -23 5 -35 14 -35 19 0 27 40 11 56 -21 21 -25 17 -25 -21 z "></path><path id="prkM8dUwr" d="M 11450 4146 c 0 -265 2 -306 15 -306 8 0 15 -7 15 -15 0 -12 15 -15 73 -15 130 0 117 -36 117 326 0 309 0 314 -20 314 -20 0 -21 -4 -18 -303 l 3 -302 -75 -1 -76 -1 1 301 c 0 279 -1 301 -17 304 -17 3 -18 -16 -18 -302 z "></path><path id="pEToCC1aF" d="M 5700 3945 c 0 -295 0 -295 35 -295 24 0 35 5 35 15 0 8 -7 15 -15 15 -12 0 -15 41 -17 270 -3 252 -2 270 15 270 9 0 17 5 17 10 0 6 -16 10 -35 10 -35 0 -35 0 -35 -295 z "></path><path id="p13gWjF7gM" d="M 10822 3883 c 3 -68 3 -68 76 -71 59 -2 72 0 72 13 0 16 -3 17 -62 20 -46 2 -49 5 -52 47 -2 18 -4 39 -5 46 0 6 -8 12 -16 12 -13 0 -15 -12 -13 -67 z "></path><path id="pVi2YoN6H" d="M 9937 3859 c -3 -11 -11 -19 -19 -18 -30 4 -48 -2 -48 -16 0 -11 12 -15 50 -15 50 0 50 0 50 35 0 39 -24 49 -33 14 z "></path><path id="p9FuZvzB8" d="M 9980 3845 c 0 -35 0 -35 75 -35 75 0 75 0 75 35 0 37 -24 50 -32 17 -4 -14 -13 -17 -51 -14 -32 3 -47 9 -47 18 0 8 -4 14 -10 14 -5 0 -10 -16 -10 -35 z "></path><path id="pWwNaiQhM" d="M 10140 3845 c 0 -35 0 -35 90 -35 73 0 90 3 90 15 0 8 -8 16 -17 16 -10 1 -34 3 -53 4 -19 1 -45 3 -57 4 -13 0 -23 8 -23 16 0 8 -7 15 -15 15 -10 0 -15 -11 -15 -35 z "></path><path id="p2F2Tdnap" d="M 11413 3866 c 6 -14 -19 -29 -39 -25 -25 4 -44 -3 -44 -16 0 -12 13 -15 55 -15 55 0 55 0 55 35 0 25 -4 35 -16 35 -10 0 -14 -6 -11 -14 z "></path><path id="pQ0dNVAb" d="M 9130 3745 c 0 -39 24 -50 33 -15 3 11 12 20 21 20 9 0 16 7 16 15 0 10 -11 15 -35 15 -33 0 -35 -2 -35 -35 z "></path><path id="p1Av5WkMgN" d="M 9900 3765 c 0 -8 7 -15 16 -15 9 0 18 -9 21 -20 9 -35 33 -24 33 15 0 33 -2 35 -35 35 -24 0 -35 -5 -35 -15 z "></path><path id="p7y13fLC4" d="M 9980 3745 c 0 -19 5 -35 10 -35 6 0 10 9 10 20 0 11 3 19 8 19 24 -4 42 3 42 16 0 10 -11 15 -35 15 -33 0 -35 -2 -35 -35 z "></path><path id="po2DUAjrY" d="M 11600 3765 c 0 -8 7 -15 15 -15 13 0 15 -51 15 -400 l 0 -400 -355 -2 c -195 -1 -369 -2 -386 -2 -30 -1 -30 -1 -32 401 -2 395 -2 402 18 406 11 2 3 5 -17 6 -38 1 -38 1 -38 -414 0 -415 0 -415 35 -415 19 0 35 -5 35 -10 0 -7 131 -9 388 -8 l 387 3 3 433 c 2 432 2 432 -33 432 -24 0 -35 -5 -35 -15 z "></path><path id="p19LuAn1kc" d="M 6220 3704 c 0 -9 -9 -18 -20 -21 -35 -9 -24 -33 15 -33 33 0 35 2 35 35 0 24 -5 35 -15 35 -8 0 -15 -7 -15 -16 z "></path><path id="psNJjr6Th" d="M 5713 3633 c -10 -4 -13 -149 -13 -664 0 -659 0 -659 35 -659 19 0 35 5 35 10 0 6 -8 10 -17 10 -17 0 -18 23 -18 338 l 0 337 242 0 c 225 0 243 -1 243 -17 0 -10 4 -18 9 -18 8 0 21 69 21 111 0 25 -26 24 -33 -1 -3 -11 -12 -20 -21 -20 -9 0 -16 -4 -16 -10 0 -6 -75 -10 -205 -10 -130 0 -205 4 -205 10 0 6 -8 10 -17 10 -17 0 -18 20 -18 273 l 0 272 85 0 c 100 -1 120 3 120 21 0 11 -22 14 -107 13 -60 0 -114 -3 -120 -6 z "></path><path id="pOvr0fp6Q" d="M 4380 3235 c 0 -48 2 -55 20 -55 11 0 20 -7 20 -15 0 -8 4 -15 9 -15 5 0 11 -9 14 -20 3 -11 14 -20 25 -20 11 0 22 -9 25 -20 3 -11 14 -20 25 -20 11 0 22 -9 25 -20 3 -13 17 -22 36 -26 17 -4 31 -10 31 -15 0 -5 11 -9 25 -9 20 0 25 -5 25 -25 0 -20 5 -25 25 -25 17 0 25 -5 25 -18 0 -10 5 -23 12 -30 7 -7 20 -12 30 -12 10 0 18 -7 18 -15 0 -8 9 -15 20 -15 11 0 20 -7 20 -15 0 -8 7 -15 15 -15 8 0 15 -4 15 -10 0 -5 8 -10 19 -10 10 0 21 -9 24 -20 3 -14 14 -20 31 -20 21 0 26 -5 26 -25 0 -20 5 -25 25 -25 15 0 25 -6 25 -15 0 -8 11 -17 24 -21 14 -3 27 -12 30 -20 3 -8 14 -14 26 -14 15 0 19 5 17 22 -2 12 -10 24 -18 26 -8 3 -17 9 -20 14 -3 5 -16 10 -29 13 -13 2 -45 26 -71 52 -55 55 -64 63 -104 89 -17 10 -35 23 -42 29 -6 5 -26 21 -42 35 -17 14 -39 32 -49 41 -10 8 -26 19 -36 22 -10 4 -20 16 -23 27 -3 11 -9 20 -14 20 -13 0 -93 52 -102 67 -4 7 -13 13 -19 13 -12 0 -58 47 -58 59 0 5 -9 11 -20 14 -11 3 -21 14 -21 26 -1 12 -3 26 -4 31 -1 6 -3 17 -4 25 0 8 -8 15 -16 15 -12 0 -15 -13 -15 -55 z "></path><path id="pwt0hy02b" d="M 9940 2963 c 0 -17 -15 -18 -192 -15 -210 3 -258 -1 -258 -23 0 -13 36 -15 235 -15 235 0 235 0 235 35 0 19 -4 35 -10 35 -5 0 -10 -8 -10 -17 z "></path><path id="p16hXkPZvQ" d="M 10790 2965 c 0 -13 -38 -15 -277 -15 -289 0 -323 -3 -323 -26 0 -12 53 -14 310 -14 310 0 310 0 310 35 0 19 -4 35 -10 35 -5 0 -10 -7 -10 -15 z "></path><path id="pS2siu3wx" d="M 8018 2949 c -21 -12 -24 -29 -4 -29 7 0 16 9 19 20 3 11 4 20 4 20 -1 0 -10 -5 -19 -11 z "></path><path id="pG3YfSoVj" d="M 6218 2345 c -3 -14 -27 -16 -160 -16 -149 -1 -158 -2 -158 -20 0 -18 9 -19 165 -19 165 0 165 0 165 35 0 36 -6 46 -12 20 z "></path></g></g><g id="l67HBXFErCuIZPgqizAzDRm" fill="rgb(60,54,100)" style="transform: none;"><g><path id="pqxKaLXDY" d="M 8560 6655 l 0 -1345 223 0 c 122 0 519 9 882 20 627 18 847 32 1140 70 44 6 116 15 160 21 44 5 103 14 130 19 28 5 71 11 98 15 37 5 47 10 47 25 0 16 13 18 158 23 126 4 175 10 247 29 163 45 447 142 502 171 55 29 103 77 103 103 0 20 5 24 33 24 18 0 42 7 54 15 21 15 73 134 73 168 0 9 6 17 13 17 16 0 97 191 97 230 0 17 4 30 9 30 14 0 20 23 37 143 9 62 20 117 24 122 4 6 18 62 30 125 12 63 26 129 30 145 5 17 16 75 25 130 8 55 20 127 25 160 5 33 14 139 20 235 6 96 17 252 25 345 8 94 15 200 15 238 l 0 67 -2100 0 -2100 0 0 -1345 z  m 354 1098 c -29 -4 -32 -8 -38 -50 -3 -25 -7 -116 -7 -202 -1 -86 -5 -217 -8 -291 -6 -108 -8 -68 -9 201 -1 185 1 339 5 342 3 4 25 6 47 5 35 -1 36 -2 10 -5 z "></path><path id="pJdIeV7Kk" d="M 14740 7638 c -1 -200 0 -439 0 -531 1 -183 -3 -199 -64 -256 -14 -14 -26 -29 -26 -35 0 -6 -12 -29 -26 -49 -32 -48 -25 -59 13 -21 34 35 84 74 95 74 4 0 8 -67 8 -150 0 -150 0 -150 30 -150 30 0 30 0 30 145 0 81 4 145 9 145 5 0 11 -4 13 -9 5 -15 120 -113 125 -107 7 7 -62 118 -88 142 -12 10 -30 37 -40 59 -17 36 -19 70 -19 320 0 280 0 280 23 254 35 -42 117 -112 123 -107 7 8 -61 115 -97 153 -45 48 -49 73 -49 286 0 199 0 199 -30 199 -30 0 -30 0 -30 -362 z "></path><path id="p1Ga7XRgPI" d="M 4340 6700 c 0 -20 -5 -30 -15 -30 -8 0 -15 -7 -15 -15 0 -12 14 -15 65 -15 51 0 65 3 65 15 0 8 -7 15 -15 15 -10 0 -15 10 -15 30 0 28 -3 30 -35 30 -32 0 -35 -2 -35 -30 z "></path><path id="pvpdOidGo" d="M 6830 6685 c 0 -45 0 -45 35 -45 24 0 35 5 35 15 0 8 -7 15 -15 15 -10 0 -15 10 -15 30 0 23 -4 30 -20 30 -17 0 -20 -7 -20 -45 z "></path><path id="pNUxZCmkm" d="M 4310 6575 c 0 -8 7 -15 15 -15 13 0 15 -31 15 -220 0 -189 -2 -220 -15 -220 -8 0 -15 -4 -15 -10 0 -6 28 -10 65 -10 61 0 84 11 50 24 -13 4 -15 39 -15 221 0 184 2 215 15 215 8 0 15 7 15 15 0 12 -14 15 -65 15 -51 0 -65 -3 -65 -15 z "></path><path id="pH6gYt1ID" d="M 5630 6575 c 0 -8 7 -15 15 -15 13 0 15 -31 15 -220 0 -189 -2 -220 -15 -220 -8 0 -15 -4 -15 -10 0 -6 28 -10 65 -10 37 0 65 4 65 10 0 6 -7 10 -15 10 -13 0 -15 28 -15 195 l 0 195 245 0 245 0 0 -195 c 0 -167 -2 -195 -15 -195 -8 0 -15 -7 -15 -15 0 -16 22 -19 83 -9 36 6 53 24 22 24 -13 0 -15 31 -15 220 0 189 2 220 15 220 8 0 15 7 15 15 0 13 -44 15 -340 15 -296 0 -340 -2 -340 -15 z "></path><path id="p1AmDKMvXw" d="M 6830 6140 c 0 -39 1 -40 35 -40 19 0 35 5 35 10 0 6 -7 10 -15 10 -10 0 -15 10 -15 30 0 23 -4 30 -20 30 -17 0 -20 -7 -20 -40 z "></path><path id="pvH6kfMdH" d="M 4310 6045 c 0 -8 7 -15 15 -15 13 0 15 -164 15 -1420 l 0 -1420 71 -67 c 39 -37 83 -75 97 -84 15 -9 57 -46 95 -80 37 -35 96 -86 132 -114 35 -27 68 -60 74 -72 6 -12 27 -31 48 -42 36 -18 65 -44 143 -126 19 -20 47 -43 63 -51 27 -15 27 -15 27 51 0 58 -3 69 -26 90 -15 14 -33 25 -41 25 -8 0 -40 24 -71 53 -31 30 -84 73 -117 97 -72 53 -162 125 -191 154 -12 12 -40 32 -64 46 -23 14 -71 52 -106 85 l -64 61 0 1407 c 0 1277 1 1407 16 1407 9 0 14 6 12 13 -3 7 -28 13 -66 15 -51 2 -62 0 -62 -13 z "></path><path id="p9D7AuE5d" d="M 5630 6045 c 0 -8 7 -15 15 -15 13 0 15 -216 15 -1885 l 0 -1885 310 0 310 0 0 1885 c 0 1669 2 1885 15 1885 8 0 15 7 15 15 0 12 -13 15 -60 15 -47 0 -60 -3 -60 -15 0 -8 7 -15 15 -15 13 0 15 -37 15 -270 l 0 -270 -245 0 -245 0 0 270 c 0 240 2 270 16 270 9 0 14 6 12 13 -3 7 -28 13 -66 15 -51 2 -62 0 -62 -13 z  m 588 -897 l -3 -273 -220 -3 c -121 -1 -230 0 -242 3 -23 5 -23 5 -23 275 l 0 270 245 0 245 0 -2 -272 z  m 2 -598 l 0 -270 -245 0 -245 0 0 270 0 270 245 0 245 0 0 -270 z  m -2 -605 l 2 -265 -245 0 -245 0 0 269 0 270 243 -5 242 -4 3 -265 z  m 2 -610 l 0 -275 -245 0 -245 0 0 275 0 275 245 0 245 0 0 -275 z  m -2 -667 l -3 -343 -60 -3 c -33 -2 -142 -1 -242 3 l -183 7 0 339 0 339 245 0 245 0 -2 -342 z "></path><path id="pxL9i6REb" d="M 9080 4149 c 0 -292 -1 -301 -20 -306 -11 -3 -20 -12 -20 -19 0 -11 18 -14 75 -14 60 0 75 3 75 15 0 8 -7 15 -15 15 -13 0 -15 41 -15 305 0 305 0 305 -40 305 -40 0 -40 0 -40 -301 z "></path><path id="pyGpX1Jvw" d="M 9947 4443 c -4 -3 -7 -141 -7 -305 0 -258 -2 -298 -15 -298 -8 0 -15 -7 -15 -16 0 -14 8 -16 57 -10 65 8 75 13 50 27 -16 9 -17 35 -17 309 0 300 0 300 -23 300 -13 0 -27 -3 -30 -7 z "></path><path id="pGz3WyXHk" d="M 10800 4135 c 0 -315 0 -315 40 -315 40 0 53 13 25 24 -13 5 -15 46 -15 290 0 156 -3 291 -6 300 -3 9 -15 16 -25 16 -18 0 -19 -13 -19 -315 z "></path><path id="pG7nRZ50k" d="M 11640 4146 c 0 -265 -2 -306 -15 -306 -8 0 -15 -7 -15 -15 0 -12 14 -15 65 -15 51 0 65 3 65 15 0 8 -6 15 -14 15 -10 0 -15 40 -20 188 -4 103 -6 239 -5 302 2 115 2 115 -30 118 -31 3 -31 3 -31 -302 z "></path><path id="p5zLPU5oU" d="M 12064 3965 c -3 -19 -4 -53 -2 -75 3 -36 1 -41 -19 -46 -36 -10 -28 -34 11 -34 42 0 46 9 46 111 0 62 -3 79 -15 79 -8 0 -17 -14 -21 -35 z "></path><path id="p10k08d39h" d="M 12140 3828 c 0 -14 8 -18 35 -18 24 0 35 5 35 15 0 8 -6 15 -12 16 -7 0 -23 2 -35 3 -17 2 -23 -3 -23 -16 z "></path><path id="p1GfTarOPw" d="M 9050 3765 c 0 -8 7 -15 15 -15 13 0 15 -55 15 -435 l 0 -435 1315 0 1315 0 0 435 c 0 380 2 435 15 435 8 0 15 7 15 15 0 11 -12 15 -49 15 -54 0 -81 -7 -81 -21 0 -5 7 -9 15 -9 13 0 15 -49 13 -402 l -3 -403 -390 0 -390 0 -3 403 c -2 353 0 402 13 402 8 0 15 4 15 9 0 12 -84 25 -105 17 -19 -7 -19 -26 0 -26 13 0 15 -49 13 -402 l -3 -403 -390 0 -390 0 -3 403 c -2 353 0 402 13 402 8 0 15 4 15 10 0 24 -110 26 -118 3 -2 -7 3 -13 12 -13 14 0 16 -42 16 -405 l 0 -405 -390 0 -390 0 0 405 c 0 363 2 405 16 405 9 0 14 6 12 13 -3 7 -29 13 -71 15 -55 2 -67 0 -67 -13 z "></path><path id="p7AOvBYfV" d="M 7703 2942 c -283 -2 -283 -2 -283 -32 0 -30 0 -30 305 -30 305 0 305 0 305 34 0 30 -3 34 -22 33 -13 -1 -150 -3 -305 -5 z "></path><path id="puzHn3cgO" d="M 7160 1775 c 0 -40 24 -49 34 -12 10 37 7 47 -14 47 -16 0 -20 -7 -20 -35 z "></path><path id="plbqqPRTe" d="M 7110 1615 c 0 -40 24 -49 34 -12 10 37 7 47 -14 47 -16 0 -20 -7 -20 -35 z "></path></g></g><g id="l6ubrpxedVFMC30IylxmXA3" fill="rgb(51,41,68)" style="transform: none;"><g><path id="p7chQBU2t" d="M 9808 8323 c 50 -2 134 -2 185 0 50 1 9 3 -93 3 -102 0 -143 -2 -92 -3 z "></path><path id="pbwEDgYxP" d="M 12730 7948 c 0 -29 -6 -127 -14 -218 -8 -91 -18 -213 -21 -272 l -7 -108 -1642 0 c -1063 0 -1636 -4 -1626 -10 10 -6 609 -10 1643 -10 1629 0 1629 0 1623 -50 -3 -27 -9 -72 -12 -100 -6 -50 -6 -50 -1636 -50 -1299 0 -1629 -3 -1626 -12 4 -10 340 -14 1626 -16 1536 -2 1622 -3 1622 -20 0 -20 -28 -189 -36 -214 -5 -17 -83 -18 -1407 -20 -926 -2 -1402 -6 -1402 -13 0 -7 474 -11 1398 -13 1322 -2 1397 -3 1397 -20 0 -9 -11 -62 -23 -117 -22 -100 -22 -100 -107 -107 -47 -3 -574 -6 -1172 -7 -706 -1 -1088 -4 -1088 -11 0 -6 408 -11 1159 -12 638 -2 1162 -5 1164 -8 3 -3 1 -27 -3 -55 -5 -27 -11 -71 -15 -97 -11 -86 125 -78 -1377 -78 -1067 0 -1339 -3 -1336 -12 4 -10 283 -14 1341 -16 851 -1 1337 -6 1337 -12 0 -5 -19 -54 -42 -109 -40 -95 -43 -99 -77 -105 -20 -3 -649 -6 -1398 -6 -902 0 -1363 -3 -1363 -10 0 -7 469 -10 1386 -10 1316 0 1386 -1 1379 -17 -4 -10 -16 -42 -27 -71 -35 -94 47 -87 -950 -90 -552 -2 -878 -6 -878 -12 0 -6 310 -10 838 -10 460 0 843 -4 850 -9 15 -9 -36 -59 -91 -88 -52 -27 -324 -120 -502 -172 -90 -25 -90 -25 -1182 -28 -704 -2 -1093 -7 -1093 -13 0 -7 314 -10 883 -11 485 -1 907 -4 937 -8 55 -7 55 -7 5 -15 -27 -4 -72 -11 -100 -16 -27 -5 -86 -14 -130 -19 -44 -6 -116 -15 -160 -21 -276 -36 -514 -51 -985 -65 -278 -8 -570 -16 -650 -19 -80 -3 -243 -6 -362 -6 l -218 0 0 -160 0 -160 2250 0 2250 0 0 1490 0 1490 -165 0 c -165 0 -165 0 -165 -52 z "></path><path id="pnNJ37Oja" d="M 12023 7793 c 15 -2 39 -2 55 0 15 2 2 4 -28 4 -30 0 -43 -2 -27 -4 z "></path><path id="p11Dlauk9" d="M 8824 7779 c -8 -14 -1 -1921 7 -1911 3 4 11 153 18 332 6 179 18 467 26 640 9 173 19 440 24 592 4 153 11 281 15 285 7 7 176 11 1061 27 193 4 508 11 700 16 193 5 561 12 820 15 258 3 471 8 474 10 2 3 -703 5 -1567 5 -1136 0 -1573 -3 -1578 -11 z "></path><path id="ppGYRrkIS" d="M 3040 6700 c 0 -30 0 -30 -615 -30 l -615 0 0 -55 0 -55 615 0 615 0 0 -220 0 -220 -615 0 c -615 0 -615 0 -615 -45 0 -50 -404 -45 3858 -45 l 1262 0 1 -2612 c 1 -2165 3 -2601 14 -2543 14 75 29 134 69 260 60 188 87 284 96 344 10 60 30 133 65 236 42 126 84 277 89 323 4 29 9 59 12 67 4 10 0 15 -15 15 -21 0 -21 0 -21 1120 l 0 1120 -120 0 -120 0 2 178 3 177 168 3 167 2 0 655 0 655 300 0 c 300 0 300 0 300 45 0 45 0 45 -300 45 l -300 0 0 220 0 220 300 0 c 300 0 300 0 300 55 0 55 0 55 -300 55 -300 0 -300 0 -300 30 0 30 0 30 -206 30 -206 0 -206 0 -200 -30 5 -29 5 -30 -35 -30 -41 0 -41 1 -35 30 6 30 6 30 -44 30 -49 0 -50 -1 -50 -30 0 -30 0 -30 -605 -30 -605 0 -605 0 -605 30 0 29 -2 30 -45 30 -43 0 -45 -1 -45 -30 0 -30 0 -30 -1160 -30 -1160 0 -1160 0 -1160 30 0 30 -1 30 -55 30 -54 0 -55 0 -55 -30 z  m 2430 -360 l 0 -220 -1160 0 -1160 0 0 220 0 220 1160 0 1160 0 0 -220 z  m 1300 0 l 0 -220 -605 1 -605 1 0 219 0 219 605 0 605 0 0 -220 z  m 160 -1 c 0 -220 0 -220 -32 -217 -19 2 -33 8 -32 16 1 6 2 104 3 217 1 205 1 205 31 205 30 0 30 0 30 -221 z "></path><path id="pmVs4PakI" d="M 9340 5840 c 0 -6 140 -10 400 -10 260 0 400 4 400 10 0 7 -140 10 -400 10 -260 0 -400 -3 -400 -10 z "></path><path id="pKLrFXMF" d="M 9448 4148 l -3 -303 -292 -2 -293 -2 0 105 c 0 104 0 104 -35 104 -34 0 -34 0 -37 -102 l -3 -103 -112 -3 c -113 -3 -113 -3 -113 -47 0 -45 0 -45 283 -45 756 0 2894 -1 3215 0 362 0 362 0 362 45 0 44 0 44 -137 47 l -138 3 -3 103 c -3 102 -3 102 -37 102 -34 0 -34 0 -37 -102 l -3 -103 -292 -2 -293 -1 0 304 c 0 305 0 305 -32 302 -33 -3 -33 -3 -35 -303 l -2 -300 -258 -3 c -142 -2 -273 0 -291 3 -33 6 -33 6 -30 306 3 299 3 299 -34 299 -38 0 -38 0 -38 -305 l 0 -305 -295 0 -295 0 -2 303 c -3 302 -3 302 -35 305 -33 3 -33 3 -33 -301 l 0 -304 -292 1 -293 1 -3 303 c -2 302 -2 302 -32 302 -30 0 -30 0 -32 -302 z "></path><path id="pwVT7j5kx" d="M 8200 2885 l 0 -345 175 0 175 0 0 123 c 0 67 2 217 4 332 2 116 1 216 -1 223 -4 9 -49 12 -179 12 l -174 0 0 -345 z "></path></g></g></svg>