<svg width="337" height="81" viewBox="0 0 337 81" fill="none" xmlns="http://www.w3.org/2000/svg">
<path d="M24.6741 62H14.3156L14.3783 58.7041H24.6741C27.9595 58.7041 30.7846 57.9717 33.1493 56.5068C35.5349 55.0211 37.3764 52.9703 38.6738 50.3545C39.9713 47.7387 40.62 44.7044 40.62 41.2515V36.9826C40.62 34.3458 40.2433 31.9602 39.49 29.8258C38.7575 27.6913 37.7008 25.8707 36.3196 24.364C34.9385 22.8364 33.2853 21.6645 31.3601 20.8484C29.4558 20.0322 27.3213 19.6242 24.9566 19.6242H14.1272V16.2969H24.9566C27.8026 16.2969 30.4079 16.7886 32.7726 17.7722C35.1582 18.7348 37.2194 20.1369 38.9563 21.9784C40.7141 23.799 42.0639 25.9858 43.0056 28.5388C43.9682 31.0918 44.4495 33.9378 44.4495 37.0767V41.2515C44.4495 44.3905 43.9682 47.2365 43.0056 49.7895C42.0639 52.3425 40.7141 54.5293 38.9563 56.3499C37.1985 58.1705 35.1163 59.5725 32.7098 60.5561C30.3033 61.5187 27.6247 62 24.6741 62ZM16.042 16.2969V62H12.1811V16.2969H16.042ZM66.5477 62.6278C64.3295 62.6278 62.2892 62.2197 60.4268 61.4036C58.5852 60.5875 56.9739 59.4365 55.5928 57.9508C54.2326 56.465 53.1758 54.7072 52.4224 52.6773C51.69 50.6265 51.3238 48.3874 51.3238 45.96V44.6102C51.3238 41.9944 51.7109 39.6297 52.4852 37.5162C53.2595 35.4026 54.3267 33.5925 55.6869 32.0858C57.0472 30.5791 58.5957 29.4282 60.3326 28.633C62.0904 27.8168 63.9319 27.4088 65.8571 27.4088C68.0126 27.4088 69.9273 27.7959 71.6014 28.5702C73.2755 29.3235 74.6776 30.4012 75.8076 31.8033C76.9586 33.1844 77.827 34.8271 78.4129 36.7314C78.9989 38.6148 79.2919 40.697 79.2919 42.978V45.2694H53.5838V42.0677H75.5565V41.6282C75.5146 39.7239 75.1275 37.9452 74.3951 36.292C73.6836 34.6179 72.6164 33.2577 71.1934 32.2114C69.7704 31.165 67.9916 30.6419 65.8571 30.6419C64.2667 30.6419 62.8019 30.9767 61.4626 31.6463C60.1443 32.316 59.0038 33.2786 58.0412 34.5342C57.0995 35.7688 56.367 37.2441 55.8439 38.9601C55.3417 40.6551 55.0905 42.5385 55.0905 44.6102V45.96C55.0905 47.8433 55.3626 49.6011 55.9067 51.2334C56.4717 52.8447 57.2669 54.2677 58.2923 55.5024C59.3386 56.737 60.5732 57.6996 61.9962 58.3902C63.4192 59.0808 64.9887 59.4261 66.7047 59.4261C68.7136 59.4261 70.4923 59.0598 72.0409 58.3274C73.5894 57.5741 74.981 56.3917 76.2157 54.7804L78.5699 56.601C77.8375 57.6892 76.9167 58.6936 75.8076 59.6144C74.7194 60.5352 73.4116 61.2676 71.8839 61.8117C70.3563 62.3557 68.5776 62.6278 66.5477 62.6278ZM86.637 13.7857H90.4037V55.4082L90.1526 62H86.637V13.7857ZM114.04 44.7044V45.3636C114.04 47.8956 113.747 50.2185 113.161 52.332C112.575 54.4456 111.728 56.2766 110.619 57.8252C109.509 59.3528 108.149 60.5352 106.538 61.3722C104.948 62.2093 103.116 62.6278 101.045 62.6278C99.0149 62.6278 97.2153 62.3139 95.6458 61.6861C94.0763 61.0374 92.737 60.1271 91.6279 58.9552C90.5188 57.7624 89.6295 56.3708 88.9598 54.7804C88.2902 53.1691 87.8193 51.4008 87.5473 49.4756V41.0946C87.8612 39.0438 88.3634 37.1814 89.054 35.5073C89.7446 33.8331 90.6339 32.3892 91.7221 31.1755C92.8312 29.9618 94.1496 29.0306 95.6772 28.3818C97.2257 27.7331 98.994 27.4088 100.982 27.4088C103.054 27.4088 104.895 27.8168 106.507 28.633C108.139 29.4282 109.509 30.5896 110.619 32.1172C111.728 33.6239 112.575 35.4445 113.161 37.579C113.747 39.6925 114.04 42.0677 114.04 44.7044ZM110.242 45.3636V44.7044C110.242 42.7164 110.054 40.8749 109.677 39.1798C109.3 37.4848 108.704 36.0095 107.888 34.7539C107.092 33.4774 106.067 32.4834 104.812 31.7719C103.556 31.0604 102.049 30.7047 100.291 30.7047C98.4918 30.7047 96.9537 31.0081 95.6772 31.615C94.4216 32.2009 93.3753 32.9856 92.5382 33.9692C91.7221 34.9318 91.0734 35.9886 90.5921 37.1395C90.1108 38.2905 89.755 39.4205 89.5248 40.5296V50.2917C89.8806 51.8612 90.4979 53.3365 91.3768 54.7176C92.2557 56.0988 93.4381 57.2183 94.9238 58.0763C96.4096 58.9134 98.2197 59.3319 100.354 59.3319C102.07 59.3319 103.545 58.9761 104.78 58.2646C106.036 57.5532 107.061 56.5696 107.856 55.314C108.672 54.0585 109.269 52.5831 109.646 50.8881C110.043 49.1931 110.242 47.3516 110.242 45.3636ZM135.197 28.0366V31.1127H118.183V28.0366H135.197ZM124.43 19.3103H128.165V53.7446C128.165 55.314 128.375 56.4964 128.793 57.2916C129.212 58.0868 129.756 58.6204 130.425 58.8924C131.095 59.1645 131.817 59.3005 132.591 59.3005C133.156 59.3005 133.7 59.2691 134.223 59.2063C134.747 59.1226 135.217 59.0389 135.636 58.9552L135.793 62.1256C135.333 62.272 134.736 62.3871 134.004 62.4708C133.271 62.5755 132.539 62.6278 131.807 62.6278C130.363 62.6278 129.086 62.3662 127.977 61.8431C126.868 61.299 125.999 60.3782 125.372 59.0808C124.744 57.7624 124.43 55.9732 124.43 53.7132V19.3103Z" fill="black" fill-opacity="0.76"/>
<path d="M1.01758 53.8932L140.303 37.8218" stroke="#F85050" stroke-width="5.35714"/>
<path d="M170.856 50.0406C170.856 49.2245 170.731 48.492 170.48 47.8433C170.249 47.1737 169.81 46.5668 169.161 46.0227C168.513 45.4577 167.602 44.9032 166.43 44.3591C165.259 43.815 163.741 43.25 161.879 42.6641C159.807 41.9944 157.84 41.2411 155.978 40.404C154.136 39.567 152.504 38.5939 151.081 37.4848C149.679 36.3548 148.57 35.0469 147.754 33.5611C146.958 32.0753 146.561 30.3489 146.561 28.3818C146.561 26.4775 146.979 24.7511 147.816 23.2026C148.653 21.6331 149.825 20.2938 151.332 19.1847C152.839 18.0547 154.617 17.1862 156.668 16.5794C158.74 15.9725 161.01 15.6691 163.48 15.6691C166.849 15.6691 169.789 16.2759 172.3 17.4897C174.811 18.7034 176.758 20.367 178.139 22.4806C179.541 24.5942 180.242 27.0112 180.242 29.7316H170.888C170.888 28.3923 170.605 27.2204 170.04 26.216C169.496 25.1906 168.659 24.3849 167.529 23.799C166.42 23.213 165.018 22.9201 163.323 22.9201C161.691 22.9201 160.33 23.1712 159.242 23.6734C158.154 24.1547 157.338 24.8139 156.794 25.6509C156.25 26.4671 155.978 27.3878 155.978 28.4132C155.978 29.1875 156.166 29.8885 156.543 30.5163C156.94 31.1441 157.526 31.7301 158.301 32.2741C159.075 32.8182 160.027 33.3309 161.157 33.8122C162.287 34.2935 163.595 34.7644 165.081 35.2247C167.571 35.9781 169.758 36.8256 171.641 37.7673C173.545 38.709 175.136 39.7658 176.412 40.9376C177.689 42.1095 178.651 43.4383 179.3 44.9241C179.949 46.4099 180.273 48.0944 180.273 49.9778C180.273 51.9658 179.886 53.7446 179.112 55.314C178.337 56.8835 177.218 58.2123 175.753 59.3005C174.288 60.3887 172.541 61.2153 170.511 61.7803C168.481 62.3453 166.211 62.6278 163.699 62.6278C161.439 62.6278 159.211 62.3348 157.014 61.7489C154.816 61.142 152.818 60.2317 151.018 59.018C149.239 57.8043 147.816 56.2557 146.749 54.3723C145.682 52.489 145.148 50.2603 145.148 47.6864H154.597C154.597 49.1094 154.816 50.3126 155.256 51.2962C155.695 52.2797 156.312 53.0749 157.108 53.6818C157.924 54.2886 158.886 54.7281 159.996 55.0001C161.126 55.2722 162.36 55.4082 163.699 55.4082C165.332 55.4082 166.671 55.178 167.717 54.7176C168.785 54.2573 169.569 53.619 170.072 52.8029C170.595 51.9867 170.856 51.066 170.856 50.0406ZM201.744 62.6278C199.107 62.6278 196.742 62.2093 194.65 61.3722C192.557 60.5142 190.778 59.3319 189.313 57.8252C187.869 56.3185 186.76 54.5711 185.986 52.5831C185.212 50.5742 184.825 48.4397 184.825 46.1797V44.9241C184.825 42.3502 185.191 39.996 185.923 37.8615C186.656 35.727 187.702 33.875 189.062 32.3055C190.443 30.736 192.117 29.5328 194.085 28.6957C196.052 27.8378 198.27 27.4088 200.739 27.4088C203.146 27.4088 205.28 27.8064 207.143 28.6016C209.005 29.3968 210.564 30.5268 211.82 31.9916C213.096 33.4565 214.059 35.2143 214.707 37.2651C215.356 39.2949 215.681 41.555 215.681 44.0452V47.8119H188.686V41.7852H206.797V41.0946C206.797 39.839 206.567 38.7194 206.107 37.7359C205.667 36.7314 204.998 35.9362 204.098 35.3503C203.198 34.7644 202.047 34.4714 200.645 34.4714C199.452 34.4714 198.427 34.733 197.569 35.2561C196.711 35.7793 196.01 36.5117 195.466 37.4534C194.943 38.3951 194.545 39.5042 194.273 40.7807C194.022 42.0363 193.896 43.4174 193.896 44.9241V46.1797C193.896 47.5399 194.085 48.7955 194.461 49.9464C194.859 51.0974 195.413 52.0914 196.125 52.9284C196.857 53.7655 197.736 54.4142 198.762 54.8746C199.808 55.335 200.99 55.5652 202.309 55.5652C203.941 55.5652 205.458 55.2513 206.86 54.6235C208.283 53.9747 209.507 53.0017 210.533 51.7042L214.927 56.4754C214.216 57.5008 213.243 58.4844 212.008 59.4261C210.794 60.3677 209.329 61.142 207.613 61.7489C205.897 62.3348 203.941 62.6278 201.744 62.6278ZM237.465 28.0366V34.44H217.689V28.0366H237.465ZM222.586 19.6556H231.626V51.767C231.626 52.7506 231.752 53.5039 232.003 54.0271C232.275 54.5502 232.673 54.9164 233.196 55.1257C233.719 55.314 234.378 55.4082 235.173 55.4082C235.738 55.4082 236.241 55.3873 236.68 55.3454C237.14 55.2826 237.528 55.2199 237.842 55.1571L237.873 61.8117C237.099 62.0628 236.262 62.2616 235.362 62.4081C234.462 62.5545 233.468 62.6278 232.38 62.6278C230.392 62.6278 228.655 62.3034 227.169 61.6547C225.704 60.9851 224.574 59.9178 223.779 58.453C222.984 56.9881 222.586 55.0629 222.586 52.6773V19.6556ZM259.249 28.0366V34.44H239.474V28.0366H259.249ZM244.371 19.6556H253.411V51.767C253.411 52.7506 253.536 53.5039 253.787 54.0271C254.059 54.5502 254.457 54.9164 254.98 55.1257C255.503 55.314 256.163 55.4082 256.958 55.4082C257.523 55.4082 258.025 55.3873 258.464 55.3454C258.925 55.2826 259.312 55.2199 259.626 55.1571L259.657 61.8117C258.883 62.0628 258.046 62.2616 257.146 62.4081C256.246 62.5545 255.252 62.6278 254.164 62.6278C252.176 62.6278 250.439 62.3034 248.953 61.6547C247.489 60.9851 246.359 59.9178 245.563 58.453C244.768 56.9881 244.371 55.0629 244.371 52.6773V19.6556ZM273.939 13.7857V62H264.868V13.7857H273.939ZM297.042 62.6278C294.405 62.6278 292.041 62.2093 289.948 61.3722C287.855 60.5142 286.077 59.3319 284.612 57.8252C283.168 56.3185 282.059 54.5711 281.285 52.5831C280.51 50.5742 280.123 48.4397 280.123 46.1797V44.9241C280.123 42.3502 280.489 39.996 281.222 37.8615C281.954 35.727 283.001 33.875 284.361 32.3055C285.742 30.736 287.416 29.5328 289.383 28.6957C291.35 27.8378 293.568 27.4088 296.038 27.4088C298.444 27.4088 300.579 27.8064 302.441 28.6016C304.304 29.3968 305.863 30.5268 307.118 31.9916C308.395 33.4565 309.357 35.2143 310.006 37.2651C310.655 39.2949 310.979 41.555 310.979 44.0452V47.8119H283.984V41.7852H302.096V41.0946C302.096 39.839 301.866 38.7194 301.405 37.7359C300.966 36.7314 300.296 35.9362 299.396 35.3503C298.497 34.7644 297.346 34.4714 295.943 34.4714C294.751 34.4714 293.725 34.733 292.867 35.2561C292.009 35.7793 291.308 36.5117 290.764 37.4534C290.241 38.3951 289.843 39.5042 289.571 40.7807C289.32 42.0363 289.195 43.4174 289.195 44.9241V46.1797C289.195 47.5399 289.383 48.7955 289.76 49.9464C290.157 51.0974 290.712 52.0914 291.423 52.9284C292.156 53.7655 293.035 54.4142 294.06 54.8746C295.106 55.335 296.289 55.5652 297.607 55.5652C299.239 55.5652 300.757 55.2513 302.159 54.6235C303.582 53.9747 304.806 53.0017 305.831 51.7042L310.226 56.4754C309.514 57.5008 308.541 58.4844 307.307 59.4261C306.093 60.3677 304.628 61.142 302.912 61.7489C301.196 62.3348 299.239 62.6278 297.042 62.6278ZM325.167 35.4445V62H316.127V28.0366H324.634L325.167 35.4445ZM335.4 27.8168L335.243 36.1978C334.804 36.135 334.27 36.0827 333.642 36.0409C333.035 35.9781 332.481 35.9467 331.979 35.9467C330.702 35.9467 329.593 36.1141 328.651 36.4489C327.731 36.7628 326.956 37.2337 326.329 37.8615C325.722 38.4893 325.261 39.2531 324.947 40.1529C324.654 41.0527 324.487 42.0781 324.445 43.2291L322.625 42.6641C322.625 40.4668 322.844 38.4474 323.284 36.6059C323.723 34.7434 324.361 33.1217 325.199 31.7405C326.057 30.3594 327.103 29.2921 328.337 28.5388C329.572 27.7854 330.985 27.4088 332.575 27.4088C333.077 27.4088 333.59 27.4506 334.113 27.5343C334.636 27.5971 335.065 27.6913 335.4 27.8168Z" fill="black" fill-opacity="0.76"/>
</svg>
